<svg width="107" height="44" viewBox="0 0 107 44" xmlns="http://www.w3.org/2000/svg"><g id="Page-1" stroke="none" stroke-width="1" fill="none" fill-rule="evenodd"><g id="logo" fill="#DA291C" fill-rule="nonzero"><path d="M94.788 17.72h-6.336l-3.456 9.576-3.456-9.576h-6.336l6.948 16.2L77.605 44H2a2 2 0 01-2-2V2a2 2 0 012-2h103a2 2 0 012 2v40a2 2 0 01-2 2H83.933l10.855-26.28zm-47.232 3.204V17.72h-5.76V35h5.76v-6.372c0-2.808 1.512-4.68 3.168-5.148 1.044-.288 2.088-.324 3.168 0v-6.336c-3.24.216-5.148 1.296-6.336 3.78zm18.504 9.612c-.684 0-1.368-.108-1.8-.36l10.224-6.12c-1.332-5.724-5.724-6.912-8.208-6.912-6.012 0-9.648 4.104-9.648 9.216 0 5.112 3.636 9.216 9.648 9.216 2.772 0 5.148-1.008 7.056-2.844L70.38 28.88c-1.044.972-2.592 1.656-4.32 1.656zm.216-8.352c.936 0 1.584.468 1.872.936l-5.976 3.564c-.36-2.7 1.656-4.5 4.104-4.5z" id="Rey-Logo"/></g></g></svg>