<?xml version="1.0" encoding="UTF-8"?>
<svg width="200px" height="200px" viewBox="0 0 200 200" version="1.1" xmlns="http://www.w3.org/2000/svg" xmlns:xlink="http://www.w3.org/1999/xlink">
    <!-- Generator: Sketch 54.1 (76490) - https://sketchapp.com -->
    <title>logo2</title>
    <desc>Created with Sketch.</desc>
    <g id="Page-1" stroke="none" stroke-width="1" fill="none" fill-rule="evenodd" opacity="0.501302083">
        <g id="logo2" fill="#000000" fill-rule="nonzero">
            <g id="norway" transform="translate(41.000000, 74.500000)">
                <path d="M19.6278272,38.1704296 L19.6278272,26.6838713 L17.1704129,26.6838713 L17.1704129,34.0683247 L11.6005666,26.6838713 L9.2415085,26.6838713 L9.2415085,38.1704296 L11.7152465,38.1704296 L11.7152465,30.8025873 L17.268852,38.1704296 L19.6279929,38.1704296 L19.6278272,38.1704296 Z M32.4022054,26.602477 C28.8963484,26.602477 26.2423874,29.0800189 26.2423874,32.4271505 C26.2423874,35.7585015 28.8963484,38.285046 32.4022054,38.285046 C35.9080623,38.285046 38.5620234,35.7418905 38.5620234,32.4271505 C38.5620234,29.0966299 35.9080623,26.602477 32.4022054,26.602477 L32.4022054,26.602477 Z M32.4353499,28.8665666 C34.3520949,28.8665666 35.9083938,30.4089049 35.9083938,32.4271505 C35.9083938,34.4453961 34.3520949,36.0209565 32.4353499,36.0209565 C30.468766,36.0064191 28.8853817,34.3983641 28.8966799,32.4271505 C28.88968,31.4831121 29.259771,30.5755036 29.9244558,29.9066399 C30.5891406,29.2377762 31.493167,28.8632571 32.4350184,28.8665666 L32.4353499,28.8665666 Z M52.2215248,38.1704296 L55.1539823,38.1704296 L52.7129745,34.3797823 C54.1054568,33.7236449 54.8590793,32.4437615 54.8590793,30.6713598 C54.8590793,28.1282043 53.1552875,26.6838713 50.1572868,26.6838713 L45.1773293,26.6838713 L45.1773293,38.1704296 L47.7657472,38.1704296 L47.7657472,34.8889118 L50.4033017,34.8889118 L52.2215248,38.1704296 Z M47.7654986,32.7228276 L47.7654986,28.834175 L50.1572868,28.834175 C51.5824993,28.834175 52.4017479,29.4737013 52.4017479,30.7535847 C52.4017479,32.0658596 51.5825822,32.7228276 50.1572868,32.7228276 L47.7651671,32.7228276 L47.7654986,32.7228276 Z M74.3674207,38.1704296 L78.1682635,26.6838713 L75.5142195,26.6838713 L73.122017,35.348208 L70.6974986,26.6838713 L68.1586317,26.6838713 L65.7664292,35.348208 L63.358483,26.6838713 L60.5735184,26.6838713 L64.357789,38.1704296 L67.0275765,38.1704296 L69.3866346,29.9820002 L71.6968045,38.1704296 L74.3674207,38.1704296 L74.3674207,38.1704296 Z M90.909,35.9387317 L91.8097011,38.1704296 L94.5789221,38.1704296 L89.6801686,26.6838713 L87.0095524,26.6838713 L82.0295949,38.1704296 L84.700211,38.1704296 L85.6009122,35.9387317 L90.909,35.9387317 Z M90.0737592,33.8548724 L86.4527252,33.8548724 L88.2715283,29.3914765 L90.0737592,33.8548724 Z M105.338448,34.4620071 L109.51548,26.6838713 L106.911153,26.6838713 L104.044156,31.8366268 L101.111698,26.6838713 L98.5065425,26.6838713 L102.749864,34.5276209 L102.749864,38.1704296 L105.338448,38.1704296 L105.338448,34.4620071 Z M0,7.51386028 L0,50.5 L117,50.5 L117,7.51386028 L0,7.51386028 Z M114.753633,48.1104969 L2.24603541,48.1104969 L2.24603541,9.90427702 L114.753633,9.90427702 L114.753633,48.1104969 Z M117,16.7286049 L0,16.7286049 L0,0.5 L117,0.5 L117,16.7290202 L117,16.7286049 Z" id="Shape"></path>
            </g>
        </g>
    </g>
</svg>