<?xml version="1.0" encoding="UTF-8"?>
<svg width="200px" height="200px" viewBox="0 0 200 200" version="1.1" xmlns="http://www.w3.org/2000/svg" xmlns:xlink="http://www.w3.org/1999/xlink">
    <!-- Generator: Sketch 54.1 (76490) - https://sketchapp.com -->
    <title>logo4</title>
    <desc>Created with Sketch.</desc>
    <g id="Page-1" stroke="none" stroke-width="1" fill="none" fill-rule="evenodd" opacity="0.501302083">
        <g id="logo4" fill="#25221D">
            <g id="hipster" transform="translate(29.000000, 83.000000)">
                <path d="M41.3002356,31.3296194 C41.2740617,32.0329656 41.547923,32.7150936 42.0556949,33.2113018 C42.5634668,33.70751 43.2589973,33.9726972 43.9743485,33.9428333 C45.0845015,33.9428333 46.2539757,33.3726246 46.4476169,31.9227365 L45.1366194,31.9227365 C45.0070465,32.4407165 44.5154082,32.7906198 43.9743485,32.7499349 C43.6089564,32.7358197 43.2649609,32.5768253 43.0208234,32.3092166 C42.7766859,32.0416078 42.6532265,31.6882065 42.678605,31.3296194 C42.678605,30.4795127 43.1925804,29.9018066 43.9743485,29.9018066 C44.4875287,29.857736 44.962375,30.1718073 45.1141621,30.6556984 L46.427702,30.6556984 C46.22601,29.2866143 45.0569596,28.7076587 43.9764671,28.7076587 C43.2601601,28.6805954 42.5647161,28.9478369 42.0569932,29.4452637 C41.5492704,29.9426906 41.2750897,30.6254109 41.3002356,31.3296194 Z M53.9818273,31.3362836 C53.9818273,27.7925756 48.6336015,27.7925756 48.6336015,31.3362836 C48.6336015,34.8879055 53.9822511,34.8879055 53.9822511,31.3362836 L53.9818273,31.3362836 Z M50.0043439,31.3362836 C49.9679345,30.854523 50.2087742,30.3932282 50.6281775,30.1414177 C51.0475808,29.8896072 51.5750513,29.8896072 51.9944546,30.1414177 C52.4138579,30.3932282 52.6546976,30.854523 52.6182882,31.3362836 C52.6546976,31.8180443 52.4138579,32.2793391 51.9944546,32.5311496 C51.5750513,32.7829601 51.0475808,32.7829601 50.6281775,32.5311496 C50.2087742,32.2793391 49.9679345,31.8180443 50.0043439,31.3362836 L50.0043439,31.3362836 Z M57.8063469,28.7668038 L56.4656888,28.7668038 L56.4656888,33.8920185 L59.6986918,33.8920185 L59.6986918,32.7132816 L57.8063469,32.7132816 L57.8063469,28.7668038 L57.8063469,28.7668038 Z M63.4342297,28.7668038 L62.0939953,28.7668038 L62.0939953,33.8920185 L65.3265745,33.8920185 L65.3265745,32.7132816 L63.4342297,32.7132816 L63.4342297,28.7668038 L63.4342297,28.7668038 Z M70.9849653,28.7668038 L67.729505,28.7668038 L67.729505,33.8920185 L71.0514897,33.8920185 L71.0514897,32.7257771 L69.0553328,32.7257771 L69.0553328,31.8248555 L70.8281879,31.8248555 L70.8281879,30.658614 L69.0553328,30.658614 L69.0553328,29.9338783 L70.9849653,29.9338783 L70.9849653,28.7668038 L70.9849653,28.7668038 Z M73.372218,31.3296194 C73.3460441,32.0329656 73.6199054,32.7150936 74.1276774,33.2113018 C74.6354493,33.70751 75.3309798,33.9726972 76.0463309,33.9428333 C77.156484,33.9428333 78.3255345,33.3726246 78.5195994,31.9227365 L77.2086019,31.9227365 C77.079029,32.4407165 76.5873907,32.7906198 76.0463309,32.7499349 C75.6809055,32.7358148 75.3368717,32.5768341 75.0926675,32.3092398 C74.8484634,32.0416456 74.7249052,31.6882478 74.7501637,31.3296194 C74.7501637,30.4795127 75.2645629,29.9018066 76.0463309,29.9018066 C76.5594685,29.8578987 77.0342202,30.1719075 77.1861446,30.6556984 L78.4971421,30.6556984 C78.2958739,29.2866143 77.1263997,28.7076587 76.0463309,28.7076587 C75.3303845,28.6811892 74.6355066,28.9486933 74.1282554,29.4460517 C73.6210043,29.9434102 73.347108,30.6257866 73.372218,31.3296194 L73.372218,31.3296194 Z M81.792856,29.9380434 L81.792856,33.8920185 L83.1114805,33.8920185 L83.1114805,29.9380434 L84.3851905,29.9380434 L84.3851905,28.7668038 L80.5119428,28.7668038 L80.5119428,29.9380434 L81.792856,29.9380434 L81.792856,29.9380434 Z M88.2482688,32.7420211 L88.2482688,29.9097204 L88.858853,29.9097204 L88.858853,28.7668038 L86.3165178,28.7668038 L86.3165178,29.9084709 L86.9275257,29.9084709 L86.9275257,32.7407716 L86.2643999,32.7407716 L86.2643999,33.890769 L88.9088522,33.890769 L88.9088522,32.7407716 L88.2461502,32.7407716 L88.2482688,32.7420211 Z M96.298997,31.3362836 C96.298997,27.7925756 90.9507711,27.7925756 90.9507711,31.3362836 C90.9495,34.8879055 96.2977258,34.8879055 96.2977258,31.3362836 L96.298997,31.3362836 Z M92.3215135,31.3362836 C92.2851041,30.854523 92.5259439,30.3932282 92.9453472,30.1414177 C93.3647505,29.8896072 93.8922209,29.8896072 94.3116242,30.1414177 C94.7310275,30.3932282 94.9718673,30.854523 94.9354579,31.3362836 C94.9683579,31.8161639 94.7265738,32.2740975 94.3084282,32.5238635 C93.8902826,32.7736295 93.3654176,32.7736295 92.947272,32.5238635 C92.5291265,32.2740975 92.2873424,31.8161639 92.3202424,31.3362836 L92.3215135,31.3362836 Z M102.797206,33.8995158 L103.273894,33.8995158 L103.273894,28.7668038 L101.909507,28.7668038 L101.909507,31.2783881 L99.2726817,28.7455615 L98.7883669,28.7455615 L98.7883669,33.892435 L100.168007,33.892435 L100.168007,31.3741865 L102.797206,33.8995158 Z M15.2137576,0.296766804 L10.4299302,0.296766804 L10.4299302,6.82521997 L4.78255626,6.82521997 L4.78255626,0.296766804 L0,0.296766804 L0,18.2872911 L4.78467487,18.2872911 L4.78467487,11.0657573 L10.4320488,11.0657573 L10.4320488,18.2872911 L15.2163,18.2872911 L15.2163,0.296766804 L15.2137576,0.296766804 Z M30.559293,14.250013 L30.559293,4.3065549 L32.703329,4.3065549 L32.703329,0.296766804 L23.7882069,0.296766804 L23.7882069,4.3065549 L25.9322429,4.3065549 L25.9322429,14.2516791 L23.6051587,14.2516791 L23.6051587,18.2872911 L32.8868009,18.2872911 L32.8868009,14.2516791 L30.5597167,14.2516791 L30.559293,14.250013 Z M45.8531342,18.285625 L45.8531342,13.6864685 L49.2259656,13.6864685 C57.9838867,13.6864685 57.9838867,0.323007237 49.2259656,0.296766804 L41.1731188,0.296766804 L41.1731188,18.2872911 L45.8535579,18.2872911 L45.8531342,18.285625 Z M49.2005422,9.54714427 L45.8531342,9.54714427 L45.8531342,4.40943406 C46.9251522,4.40943406 48.101406,4.38319363 49.2005422,4.40943406 C51.9187223,4.43484146 51.761945,9.54881033 49.2001185,9.54881033 L49.2005422,9.54714427 Z M67.7879787,12.7859635 L63.2643169,12.7859635 C63.1596575,20.6997449 78.0624028,20.5727079 78.0624028,13.0171292 C78.0624028,8.5187692 74.5060995,7.97729994 70.8722551,7.59452283 C69.2252456,7.41417192 67.8638251,7.13219139 67.9701794,5.76935492 C68.1269568,3.63638257 73.0425619,3.43062425 73.0425619,5.82100276 L77.4869876,5.82100276 C77.591647,-1.94033425 63.3689764,-1.94033425 63.5257537,5.82100276 C63.5778716,9.72749518 66.1926634,11.0640912 70.1663333,11.3460717 C71.996391,11.4493674 73.5137414,11.7317645 73.5137414,12.9908887 C73.5128939,15.1001197 67.787555,15.0759619 67.787555,12.7876295 L67.7879787,12.7859635 Z M89.4084211,4.407768 L89.4084211,18.2872911 L94.0358949,18.2872911 L94.0358949,4.40943406 L98.5065914,4.40943406 L98.5065914,0.296766804 L84.9110301,0.296766804 L84.9110301,4.40943406 L89.4079974,4.40943406 L89.4084211,4.407768 Z M118.06181,0.295100745 L106.636132,0.295100745 L106.636132,18.2872911 L118.296552,18.2872911 L118.296552,14.2012808 L111.289877,14.2012808 L111.289877,11.0399334 L117.512242,11.0399334 L117.512242,6.95392305 L111.289877,6.95392305 L111.289877,4.41026709 L118.061386,4.41026709 L118.061386,0.297599833 L118.06181,0.295100745 Z M139.420816,11.9121154 C144.04829,8.82990576 142.741529,0.321341178 135.551382,0.295100745 L127.524806,0.295100745 L127.524806,18.2872911 L132.204397,18.2872911 L132.204397,12.9933878 L134.635717,12.9933878 L137.771264,18.2881241 L143,18.2881241 L143,17.6196178 L139.420816,11.9121154 Z M135.551382,8.90487843 L132.203974,8.90487843 L132.203974,4.40651846 C133.302262,4.40651846 134.452669,4.38027802 135.551382,4.40651846 C138.218291,4.43484146 138.086937,8.90654449 135.550958,8.90654449 L135.551382,8.90487843 Z" id="HIPSTER"></path>
            </g>
        </g>
    </g>
</svg>