<?xml version="1.0" encoding="UTF-8"?>
<svg width="200px" height="200px" viewBox="0 0 200 200" version="1.1" xmlns="http://www.w3.org/2000/svg" xmlns:xlink="http://www.w3.org/1999/xlink">
    <!-- Generator: Sketch 54.1 (76490) - https://sketchapp.com -->
    <title>logo1</title>
    <desc>Created with Sketch.</desc>
    <g id="Page-1" stroke="none" stroke-width="1" fill="none" fill-rule="evenodd" opacity="0.501302083">
        <g id="logo1" fill="#000000" fill-rule="nonzero">
            <path d="M154.935813,89.0556727 L177,89.0556727 L177,111 L154.935813,111 L154.935813,89.0556727 Z M108.359,110.76803 L108.359,89.2041333 L103.712472,89.2041333 L103.712472,103.066639 L93.1806171,89.2041333 L88.7196532,89.2041333 L88.7196532,110.76803 L93.3971867,110.76803 L93.3971867,96.9380008 L103.898499,110.76803 L108.359,110.76803 Z M129.111275,93.3331927 L129.111275,89.2041333 L110.990229,89.2041333 L110.990229,93.3331927 L117.588198,93.3331927 L117.588198,110.76803 L122.482301,110.76803 L122.482301,93.3331927 L129.111275,93.3331927 L129.111275,93.3331927 Z M148.253623,93.2404049 L148.253623,89.2041333 L131.742503,89.2041333 L131.742503,110.76803 L148.596062,110.76803 L148.596062,106.736398 L136.638457,106.736398 L136.638457,101.957824 L147.105989,101.957824 L147.105989,97.9215521 L136.638457,97.9215521 L136.638457,93.2404049 L148.253623,93.2404049 Z M72.6823954,89 L64.0709766,110.568536 L69.1201029,110.568536 L75.0679005,94.3028258 L80.9842307,110.568536 L86.2503893,110.568536 L77.7319844,89 L72.6823954,89 L72.6823954,89 Z M29.6118815,89 L21,110.568536 L26.0491263,110.568536 L31.9969239,94.3028258 L37.9137168,110.568536 L43.1794127,110.568536 L34.6610078,89 L29.6123443,89 L29.6118815,89 Z M55.3799639,110.76803 L63.9913827,89.2041333 L58.9422564,89.2041333 L52.9944588,105.469844 L47.0781286,89.2041333 L41.8119699,89.2041333 L50.3303749,110.76803 L55.3799639,110.76803 Z" id="V_copy_2"></path>
        </g>
    </g>
</svg>