<?xml version="1.0" encoding="UTF-8"?>
<svg width="200px" height="200px" viewBox="0 0 200 200" version="1.1" xmlns="http://www.w3.org/2000/svg" xmlns:xlink="http://www.w3.org/1999/xlink">
    <!-- Generator: Sketch 54.1 (76490) - https://sketchapp.com -->
    <title>logo8</title>
    <desc>Created with Sketch.</desc>
    <g id="Page-1" stroke="none" stroke-width="1" fill="none" fill-rule="evenodd" opacity="0.501302083">
        <g id="logo8" fill="#030403">
            <g id="neoqueen" transform="translate(27.000000, 88.000000)">
                <path d="M10.9753618,21.2870783 L10.9753618,8.09791366 L9.48539497,8.09791366 L9.48539497,18.7060483 L1.56512717,8.0994699 L0,8.0994699 L0,21.2886346 L1.50865953,21.2886346 L1.50865953,10.6991749 L9.42892733,21.2870783 L10.9753618,21.2870783 L10.9753618,21.2870783 Z M32.3384324,9.54988896 L32.3384324,8.0994699 L23.3814966,8.0994699 L23.3814966,21.2886346 L32.5837746,21.2886346 L32.5837746,19.8568904 L24.8897667,19.8568904 L24.8897667,15.3336684 L31.5467172,15.3336684 L31.5467172,13.8832493 L24.8897667,13.8832493 L24.8897667,9.54988896 L32.3384324,9.54988896 L32.3384324,9.54988896 Z M49.7230658,8.061731 C45.8571745,8.061731 42.80247,10.9629582 42.80247,14.6932741 C42.80247,18.4045261 45.8571745,21.3625561 49.7230658,21.3625561 C53.569875,21.3625561 56.624969,18.4056933 56.624969,14.6932741 C56.624969,10.980855 53.569875,8.061731 49.7230658,8.061731 L49.7230658,8.061731 Z M49.7230658,9.49347512 C52.5820254,9.5896671 54.8305601,11.9673974 54.7644145,14.8244879 C54.6982688,17.6815783 52.3421019,19.9529064 49.481748,19.9169405 C46.6213941,19.8809745 44.3231925,17.5511227 44.3290434,14.6932741 C44.3467636,13.2867018 44.9268423,11.9456341 45.9400475,10.9688384 C46.9532527,9.99204275 48.3154145,9.46066457 49.7230658,9.49308606 L49.7230658,9.49347512 Z M80.1377042,21.41897 C79.251357,22.1725809 78.3650098,22.6059948 77.5915979,22.6059948 C76.7056401,22.6059948 75.8192929,22.0971031 74.9138635,21.1365117 C77.9006996,20.4229766 80.0117839,17.7613631 80.0243795,14.6932741 C80.0243795,10.9820221 76.9692856,8.061731 73.1224764,8.061731 C69.256585,8.061731 66.2018805,10.9629582 66.2018805,14.6932741 C66.2018805,18.4045261 69.256585,21.3625561 73.1224764,21.3625561 L73.273576,21.3625561 C74.4991184,23.0580836 75.8944533,24 77.422195,24 C78.6894248,23.9557436 79.8938942,23.4380112 80.797402,22.5491919 L80.1377042,21.41897 Z M67.7292327,14.6932741 C67.6669971,12.5094423 68.9349225,10.505524 70.936164,9.62481481 C72.9374056,8.74410567 75.273201,9.16209355 76.8440315,10.6820209 C78.4148621,12.2019482 78.9077281,14.5209581 78.090625,16.5474332 C77.2735218,18.5739084 75.3092634,19.9040586 73.1224764,19.911748 C71.7144495,19.9349417 70.3549455,19.3979949 69.3434244,18.4191817 C68.3319033,17.4403686 67.7513421,16.0999831 67.7296222,14.6932741 L67.7292327,14.6932741 Z M102.273797,8.0994699 L100.765527,8.0994699 L100.765527,15.8612349 C100.765527,18.4235901 99.2568677,19.911748 96.7489257,19.911748 C94.2409837,19.911748 92.6964964,18.4235901 92.6964964,15.8612349 L92.6964964,8.0994699 L91.1878369,8.0994699 L91.1878369,15.8612349 C91.1878369,19.2900287 93.2810339,21.3625561 96.7508729,21.3625561 C100.202019,21.3625561 102.276134,19.2900287 102.276134,15.8612349 L102.276134,8.0994699 L102.273797,8.0994699 Z M123.316365,9.54988896 L123.316365,8.0994699 L114.35943,8.0994699 L114.35943,21.2886346 L123.561708,21.2886346 L123.561708,19.8568904 L115.8677,19.8568904 L115.8677,15.3336684 L122.526987,15.3336684 L122.526987,13.8832493 L115.8677,13.8832493 L115.8677,9.54988896 L123.316365,9.54988896 L123.316365,9.54988896 Z M146,21.2870783 L146,8.09791366 L144.510423,8.09791366 L144.510423,18.7060483 L136.590155,8.0994699 L135.025028,8.0994699 L135.025028,21.2886346 L136.533687,21.2886346 L136.533687,10.6991749 L144.453566,21.2870783 L146,21.2870783 Z M100.913511,0 C101.773821,0 102.471239,0.696754 102.471239,1.55624362 C102.471239,2.41573323 101.773821,3.11248723 100.913511,3.11248723 C100.053202,3.11248723 99.3557835,2.41573323 99.3557835,1.55624362 C99.3557835,0.696754 100.053202,0 100.913511,0 Z M92.3460077,0 C93.2063171,0 93.9037356,0.696754 93.9037356,1.55624362 C93.9037356,2.41573323 93.2063171,3.11248723 92.3460077,3.11248723 C91.4856983,3.11248723 90.7882797,2.41573323 90.7882797,1.55624362 C90.7882797,0.696754 91.4856983,0 92.3460077,0 Z" id="Ellipse_2_copy"></path>
            </g>
        </g>
    </g>
</svg>