<?xml version="1.0" encoding="UTF-8"?>
<svg width="201px" height="200px" viewBox="0 0 201 200" version="1.1" xmlns="http://www.w3.org/2000/svg" xmlns:xlink="http://www.w3.org/1999/xlink">
    <!-- Generator: Sketch 54.1 (76490) - https://sketchapp.com -->
    <title>logo5</title>
    <desc>Created with Sketch.</desc>
    <g id="Page-1" stroke="none" stroke-width="1" fill="none" fill-rule="evenodd" opacity="0.501302083">
        <g id="logo5" transform="translate(0.000000, 0.000000)" fill="#030403">
            <g id="un" transform="translate(70.500000, 72.500000)">
                <path d="M26.5093869,12.4888372 L20.0052876,12.4888372 L20.0052876,29.4925581 C20.0052876,33.707907 17.453876,36.2572093 13.5857267,36.2572093 C9.71757729,36.2572093 7.00162507,33.707907 7.00162507,29.4925581 L7.00162507,12.4888372 L0.5,12.4888372 L0.5,29.4925581 C0.5,37.22 5.60241069,42.0213953 13.5857267,42.0213953 C21.5278044,42.0213953 26.507325,37.22 26.507325,29.4925581 L26.507325,12.4888372 L26.5093869,12.4888372 Z M33.2357606,41.8874419 L39.7373856,41.8874419 L39.7373856,24.887907 C39.7373856,20.6683721 42.2887972,18.1190698 46.1569466,18.1190698 C50.0250959,18.1190698 52.7410482,20.6683721 52.7410482,24.887907 L52.7410482,41.8874419 L59.2422608,41.8874419 L59.2422608,24.887907 C59.2422608,17.1604651 54.1402625,12.3548837 46.1569466,12.3548837 C38.2148688,12.3548837 33.2357606,17.1604651 33.2357606,24.887907 L33.2357606,41.8874419 Z M0.529279169,0.5 L7.12740178,0.5 L7.12740178,7.19767442 L0.529279169,7.19767442 L0.529279169,0.5 Z M52.9018774,47.8023256 L59.5,47.8023256 L59.5,54.5 L52.9018774,54.5 L52.9018774,47.8023256 Z" id="Rectangle_7_copy"></path>
            </g>
        </g>
    </g>
</svg>