<?xml version="1.0" encoding="UTF-8"?>
<svg width="201px" height="200px" viewBox="0 0 201 200" version="1.1" xmlns="http://www.w3.org/2000/svg" xmlns:xlink="http://www.w3.org/1999/xlink">
    <!-- Generator: Sketch 54.1 (76490) - https://sketchapp.com -->
    <title>logo10</title>
    <desc>Created with Sketch.</desc>
    <g id="Page-1" stroke="none" stroke-width="1" fill="none" fill-rule="evenodd" opacity="0.501302083">
        <g id="logo10" transform="translate(0.000000, 0.000000)" fill="#000000" fill-rule="nonzero">
            <g id="matuska" transform="translate(30.000000, 90.000000)">
                <path d="M4.72464053,0 L14.0577874,12.5414997 L20.2644272,0 L25.2530451,0 L16.0923159,20.8357184 L14.351492,20.8357184 L5.01913784,8.35031483 L5.01913784,20.8357184 L-1.13686838e-13,20.8357184 L-1.13686838e-13,0 L4.72464053,0 Z M37.2608459,17.149399 L28.3680577,17.149399 L26.9300547,20.8357184 L21.4126892,20.8357184 L30.2464194,0 L35.7637848,0 L44.3925956,20.8357184 L38.6691217,20.8357184 L37.2608459,17.149399 Z M35.675396,12.9862622 L32.8580516,5.55352032 L29.982442,12.9862622 L35.675396,12.9862622 Z M58.7381422,2.39210074 L58.7381422,0.104178592 L42.9712398,0.104178592 L42.9712398,2.39210074 L49.6642163,2.39210074 L49.6642163,20.8838008 L52.0130603,20.8838008 L52.0130603,2.39210074 L58.7369531,2.39210074 L58.7381422,2.39210074 Z M78.9367732,0.104178592 L76.5879292,0.104178592 L76.5879292,12.3331425 C76.5879292,16.3720664 74.2390853,18.7160847 70.3341223,18.7160847 C66.4291593,18.7160847 64.0216538,16.3720664 64.0216538,12.3331425 L64.0216538,0.104178592 L61.6739989,0.104178592 L61.6739989,12.3331425 C61.6739989,17.7344018 64.9328911,21 70.3353114,21 C75.7084009,21 78.9363768,17.7344018 78.9363768,12.3331425 L78.9363768,0.104178592 L78.9367732,0.104178592 Z M90.7967307,0.0160274757 C86.5394015,0.0160274757 83.6911409,2.12364053 83.6911409,5.38923869 C83.6911409,12.838008 95.2593757,9.92902118 95.2300448,15.3903835 C95.2300448,17.3817974 93.3802212,18.5958786 90.4150337,18.5958786 C87.8507073,18.5200296 85.4084933,17.4715512 83.5738176,15.6588437 L82.5167189,17.7945049 C84.6562085,19.8082158 87.4626087,20.9414228 90.3857028,20.9719519 C94.7896861,20.9719519 97.8139317,18.7441328 97.8139317,15.2741843 C97.8432625,7.73325701 86.2750278,10.5220378 86.2750278,5.18088151 C86.2750278,3.42987979 88.0071317,2.42014883 90.6496802,2.42014883 C92.6650756,2.44838753 94.6309294,3.05569584 96.3176634,4.17115054 L97.3161005,1.94733829 C95.3686842,0.690355037 93.1072496,0.0204232354 90.7967307,0.0160274757 L90.7967307,0.0160274757 Z M116.544436,20.8838008 L119.422028,20.8838008 L110.672326,9.1276474 L118.805288,0.104178592 L116.015292,0.104178592 L104.975409,12.0686892 L104.975409,0.104178592 L102.626565,0.104178592 L102.626565,20.8838008 L104.975409,20.8838008 L104.975409,15.4504865 L108.968364,11.0269033 L116.544436,20.8838008 Z M136.155658,15.6307956 L138.44584,20.8838008 L141,20.8838008 L131.810336,0.104178592 L129.372707,0.104178592 L120.153316,20.8838008 L122.6504,20.8838008 L124.940582,15.6307956 L136.15764,15.6307956 L136.155658,15.6307956 Z M135.157221,13.3428735 L125.93783,13.3428735 L130.518195,2.80480824 L135.157221,13.3428735 Z" id="TUSKA"></path>
            </g>
        </g>
    </g>
</svg>