<?xml version="1.0" encoding="UTF-8"?>
<svg width="200px" height="200px" viewBox="0 0 200 200" version="1.1" xmlns="http://www.w3.org/2000/svg" xmlns:xlink="http://www.w3.org/1999/xlink">
    <!-- Generator: Sketch 54.1 (76490) - https://sketchapp.com -->
    <title>logo7</title>
    <desc>Created with Sketch.</desc>
    <g id="Page-1" stroke="none" stroke-width="1" fill="none" fill-rule="evenodd" opacity="0.501302083">
        <g id="logo7" fill="#26221D">
            <g id="orange" transform="translate(60.000000, 68.000000)">
                <path d="M11.2187104,62.1536495 C10.0947137,63.3851684 8.50585021,64.0006184 6.45212005,63.9999995 C4.3983899,63.9993807 2.80983676,63.3839307 1.68646064,62.1536495 C0.562463872,60.923059 0.000310324895,59.0895502 1.42108547e-14,56.6531232 C1.42108547e-14,54.230311 0.562153547,52.4002059 1.68646064,51.1628079 C2.81076774,49.9254099 4.39932087,49.3065562 6.45212005,49.3062468 C8.50522956,49.3062468 10.094093,49.9251005 11.2187104,51.1628079 C12.3433279,52.4005153 12.9051711,54.2306204 12.9042401,56.6531232 C12.9042401,59.0895502 12.3423969,60.923059 11.2187104,62.1536495 Z M7.78760324,54.1848252 C7.56568805,53.6441927 7.03797749,53.2910023 6.45212005,53.2910023 C5.86626262,53.2910023 5.33855206,53.6441927 5.11663687,54.1848252 C4.77576084,54.9615416 4.61932914,55.8062426 4.6595283,56.6531232 C4.61825477,57.4973723 4.77475881,58.3396035 5.11663687,59.1130666 C5.3432221,59.6484452 5.86933599,59.996457 6.45212005,59.996457 C7.03490411,59.996457 7.56101801,59.6484452 7.78760324,59.1130666 C8.13022847,58.3398115 8.28707078,57.4974755 8.24564278,56.6531232 C8.28605588,55.8061359 8.12928379,54.9613175 7.78760324,54.1848252 L7.78760324,54.1848252 Z M25.6720924,63.4560271 C25.6295396,63.5703211 25.5215444,63.647316 25.3993168,63.6505019 L21.5790622,63.6505019 C21.4743424,63.6421556 21.3818045,63.5793484 21.3356123,63.485268 C21.2620078,63.3699781 21.2121625,63.2412289 21.1889838,63.1065295 L20.8575568,59.5878821 L20.8575568,59.6078401 C20.8283658,59.3204532 20.7242109,59.0456977 20.5554555,58.8109113 C20.3829839,58.6418261 20.1446478,58.5569524 19.9037733,58.5788412 L18.81174,58.5788412 L18.81174,63.1274158 C18.8155705,63.2592668 18.7781529,63.3890381 18.7046779,63.498728 C18.6502338,63.5928362 18.5506009,63.6519155 18.4416775,63.6546792 L14.6400424,63.6546792 C14.5313229,63.6520475 14.4319091,63.5928888 14.377973,63.498728 C14.3037686,63.3893335 14.2659851,63.2594226 14.26998,63.1274158 L14.26998,50.1811512 C14.26998,49.8316536 14.3937996,49.6557444 14.6423698,49.6557444 L21.3453876,49.6557444 C22.7486767,49.6557444 23.7916787,49.9766201 24.4743935,50.6183714 C25.1571083,51.2601226 25.4984656,52.3192907 25.4984656,53.7958757 C25.5071096,54.3859587 25.3943108,54.9715417 25.1670386,55.5164436 C24.9654734,56.0012417 24.6592087,56.4357759 24.2700445,56.7891163 C24.497418,56.9377709 24.6902575,57.1332174 24.8356117,57.3623295 C24.9887406,57.5955702 25.0948308,57.8563234 25.1479537,58.1300175 L25.1479537,58.1105236 C25.2379479,58.525465 25.3386483,59.1573147 25.450055,60.0060725 C25.5614616,60.8548303 25.6685237,61.8686674 25.7712412,63.0475837 C25.7712832,63.1896616 25.7372905,63.3296946 25.6720924,63.4560271 L25.6720924,63.4560271 Z M19.8642068,53.3103849 L18.8308249,53.3103849 L18.8308249,55.7786842 L20.041092,55.7786829 C20.1828569,55.7789739 20.320473,55.7309967 20.4311704,55.6426898 C20.551268,55.5481859 20.6535599,55.4331459 20.7332717,55.3029391 C20.820928,55.1587951 20.8863614,55.0023345 20.9273799,54.8387988 C20.9728903,54.6641938 20.9958846,54.4845148 20.9958066,54.3041093 C20.9958066,53.6431735 20.6192273,53.3127056 19.8660688,53.3127056 L19.8660688,53.3127056 L19.8642068,53.3103849 Z M41.2859343,63.3975455 C41.2510845,63.5425375 41.1230612,63.6462197 40.9735923,63.6505019 L36.7441743,63.6505019 C36.6685111,63.6460406 36.598002,63.6108042 36.5491351,63.5530325 C36.4870319,63.4939039 36.4402324,63.420643 36.4127474,63.3395279 C36.3084782,63.0025621 36.210881,62.6948371 36.1199558,62.4163529 C36.0290306,62.1378688 35.9312783,61.829989 35.8266988,61.4927138 L31.6373127,61.4927138 C31.6139503,61.5760184 31.5843874,61.657469 31.5488701,61.7363874 C31.5137452,61.8149933 31.4846465,61.8961409 31.461824,61.9791328 C31.3966558,62.1991353 31.3190745,62.4257904 31.2290803,62.6590983 C31.1359828,62.8911684 31.0596429,63.1195254 30.9963366,63.3395279 C30.9862486,63.5071078 30.8520757,63.640693 30.6839946,63.6505019 L26.9223914,63.6505019 C26.7712795,63.6449897 26.6410634,63.5427319 26.6002742,63.3975455 C26.5287107,63.230616 26.5253701,63.0424169 26.5909644,62.873067 L31.2304768,49.9277306 C31.2607488,49.8560595 31.3074632,49.7924702 31.3668646,49.7420745 C31.4181846,49.6889041 31.4879765,49.6573479 31.5619038,49.6538879 L36.3177879,49.6538879 C36.3942376,49.6587625 36.466624,49.6899298 36.5226024,49.7420745 C36.5859915,49.7908205 36.6360893,49.854658 36.6682999,49.9277306 L41.2887273,62.873067 C41.3525396,63.0422821 41.3515452,63.2290155 41.2859343,63.3975455 L41.2859343,63.3975455 Z M34.383688,56.8475979 C34.3057965,56.6145995 34.2282153,56.3684505 34.1509444,56.1091508 C34.0988098,55.9536638 34.0601743,55.8371646 34.0345725,55.7587249 C34.0089707,55.6802852 33.9852309,55.606951 33.9666114,55.5359375 C33.9479919,55.4649241 33.9200626,55.3869485 33.887944,55.3038674 C33.8558254,55.2207863 33.8130005,55.0866498 33.7617969,54.9051709 C33.6311502,55.2811245 33.5042273,55.666361 33.3810283,56.0608802 C33.2578293,56.4553994 33.1312168,56.8475979 33.0011906,57.2374758 C32.9845182,57.2881358 32.9716049,57.3399498 32.9625552,57.3924986 C32.9414684,57.4657468 32.9151796,57.5374055 32.8838878,57.6069314 L34.6387751,57.6069314 C34.5478499,57.3343264 34.4628209,57.0812152 34.383688,56.8475979 Z M54.7627239,63.4945508 C54.7085853,63.5885132 54.6092951,63.6475985 54.5006545,63.6505019 L49.1010013,63.6505019 C49.0254243,63.6457212 48.955034,63.6105442 48.9059621,63.5530325 C48.8459955,63.4951172 48.7937431,63.4297568 48.7504894,63.3585577 C48.5168147,62.6719395 48.2958634,61.9851666 48.0876354,61.298239 C47.8794074,60.6113114 47.6776962,59.9248479 47.4825018,59.2388486 C47.2876178,58.551921 47.0859066,57.8618992 46.8773683,57.168783 C46.66883,56.4756669 46.4412067,55.7794565 46.1944984,55.0801518 L46.1944984,63.1264875 C46.1983822,63.2597433 46.1574147,63.39046 46.0781265,63.4977998 C46.0184121,63.5913041 45.9164471,63.6495994 45.8053509,63.6537509 L42.4906156,63.6537509 C42.3818697,63.6512106 42.2824143,63.5920271 42.2285462,63.4977998 C42.1543418,63.3884052 42.1165583,63.2584943 42.1205531,63.1264875 L42.1205531,50.1811512 C42.1205531,49.8316536 42.2443728,49.6557444 42.492943,49.6557444 L48.1071859,49.6557444 C48.1746302,49.6628631 48.2371724,49.6942087 48.2831401,49.7439311 C48.3419777,49.7948468 48.3885885,49.8582951 48.4195279,49.9295872 L50.7977027,57.6463834 L50.7977027,50.1830078 C50.7886505,50.043516 50.8299264,49.905395 50.9140745,49.7935941 C50.9797735,49.7095589 51.0800075,49.659587 51.1868501,49.657601 L54.5015855,49.657601 C54.7478283,49.657601 54.8739753,49.8335102 54.8739753,50.1830078 L54.8739753,63.1274158 C54.8765422,63.258208 54.8381415,63.386543 54.7641203,63.4945508 L54.7627239,63.4945508 Z M69.0415481,62.7468208 C68.9999451,62.8362866 68.922057,62.9038193 68.8274239,62.9324769 C68.3982446,63.0763604 67.9271714,63.2156025 67.4142043,63.3502032 C66.9012373,63.4848038 66.3910632,63.5980541 65.883682,63.6899538 C65.3521446,63.7950298 64.8154898,63.872491 64.2758887,63.922024 C63.7228897,63.9740077 63.173925,63.9998448 62.6289945,63.9995354 C60.5237504,63.9995354 58.9317837,63.4196695 57.8530943,62.2599377 C56.774405,61.1002058 56.2349052,59.2636028 56.2345948,56.7501285 C56.2345948,54.2493407 56.8324358,52.3833421 58.0281176,51.1521327 C59.2237994,49.9209232 60.9262418,49.305628 63.1354447,49.3062468 C64.6034338,49.2524929 66.0564624,49.6163086 67.3248308,50.3552038 C67.883677,50.718491 68.3294914,51.2303771 68.6119033,51.8330264 C68.9311691,52.5490742 69.0970063,53.3236923 69.098803,54.1073138 C69.103848,54.2432872 69.0699407,54.3778801 69.0010507,54.495335 C68.951874,54.5896212 68.8548585,54.6494792 68.7482911,54.6512862 L64.7329973,54.6512862 C64.6512326,54.6427693 64.5767014,54.6007357 64.5272519,54.5352511 C64.4565536,54.4578652 64.4064583,54.3640288 64.3815543,54.2623366 C64.2997628,53.9420193 64.127169,53.6519727 63.8844138,53.4268841 C63.6300289,53.2015802 63.298082,53.083157 62.958094,53.0964163 C62.2987849,53.0801981 61.6843287,53.428132 61.3605415,54.0010257 C60.9441643,54.7654261 60.7483967,55.6299338 60.7949743,56.4985645 C60.7345236,57.4600314 60.9440784,58.4192652 61.4001079,59.2685536 C61.7805844,59.8850999 62.4675516,60.246177 63.1926996,60.2107584 C63.4443327,60.2122838 63.6956492,60.1927211 63.9439962,60.1522767 C64.1540866,60.1199716 64.3559324,60.0474733 64.5384235,59.9387722 L64.5384235,58.8498991 L62.6862494,58.8498991 C62.5773564,58.8470346 62.4776946,58.7882181 62.4227836,58.6944121 C62.3497537,58.5845387 62.3125261,58.4548624 62.316187,58.3230999 L62.316187,56.1852698 C62.3139591,56.0513652 62.3510086,55.919728 62.4227836,55.8065313 C62.4745777,55.7083689 62.5750824,55.6453368 62.6862494,55.6412974 L68.749222,55.6412974 C68.8600307,55.6453499 68.9601118,55.7084508 69.0112914,55.8065313 C69.0841166,55.9193252 69.1217035,56.0511448 69.1192845,56.1852698 L69.1192845,62.4270282 C69.1206045,62.5382639 69.0943832,62.6481066 69.0429446,62.7468208 L69.0415481,62.7468208 Z M79.8897306,63.4945508 C79.8348689,63.5884701 79.7352261,63.6474509 79.6262648,63.6505019 L70.8555523,63.6505019 C70.7467179,63.6478491 70.6471742,63.5887181 70.5930174,63.4945508 C70.518813,63.3851562 70.4810295,63.2552453 70.4850243,63.1232386 L70.4850243,50.1811512 C70.476195,50.0429428 70.5142309,49.9057886 70.5930174,49.7917375 C70.653657,49.7071228 70.7512558,49.6565666 70.8555523,49.6557444 L79.5690098,49.6557444 C79.6736354,49.6562697 79.7716439,49.7068588 79.8324757,49.7917375 C79.9103118,49.9061917 79.9479576,50.0431196 79.9395378,50.1811512 L79.9395378,52.9195788 C79.9407073,53.0445669 79.9033335,53.1668952 79.8324757,53.2700047 C79.7775323,53.3636503 79.6777915,53.4221619 79.5690098,53.4245634 L75.0468003,53.4245634 L75.0468003,54.7468991 L78.6720157,54.7468991 C78.7810377,54.7493152 78.8809028,54.8082515 78.9354816,54.9023861 C79.0100522,55.0177986 79.0474126,55.1532027 79.0425436,55.2904073 L79.0425436,57.9921679 C79.0464362,58.1240266 79.0090133,58.2538164 78.9354816,58.3634801 C78.8807691,58.4574826 78.7809859,58.5163706 78.6720157,58.5189671 L75.0468003,58.5189671 L75.0468003,59.8598683 L79.6290577,59.8598683 C79.738019,59.8629193 79.8376618,59.9219001 79.8925235,60.0158194 C79.9670582,60.1315924 80.0044071,60.2672787 79.9995856,60.404769 L79.9995856,63.1255593 C80.0023064,63.2567454 79.9644368,63.3855834 79.8911271,63.4945508 L79.8897306,63.4945508 Z M57.4369487,37.0747582 L51.8241023,35.5068924 L57.4383451,33.9367059 C59.0549827,33.4837049 59.9398741,31.9910298 59.4082875,30.6027863 C58.8906656,29.2103655 57.1543978,28.451032 55.5447426,28.9026405 L41.8780342,32.7220508 L28.20574,28.901248 C26.5928264,28.4496396 24.861679,29.2112937 24.3394022,30.6013939 C23.8171254,31.991494 24.6964309,33.4823125 26.311672,33.9353134 L31.9254494,35.5055 L26.311672,37.0729017 C24.6964309,37.5254384 23.8134015,39.0222908 24.3394022,40.4114626 C24.8654029,41.8006345 26.5928264,42.5632169 28.20574,42.1088236 L41.8780342,38.291734 L55.5461391,42.1125367 C57.1567253,42.5669301 58.8929931,41.8020269 59.409684,40.4151758 C59.9389431,39.0236832 59.0545172,37.527295 57.4383451,37.0747582 L57.4369487,37.0747582 Z M50.6291963,12.2121563 C49.9528432,9.56655674 46.079523,2.60909407 40.7203672,0.047039768 C39.8042881,-0.390644508 39.7214314,2.3477831 39.4840328,3.2157254 C38.3268313,7.33404203 35.7177747,9.51503717 33.4880904,12.8410664 C31.7844067,15.3557784 30.7496283,18.5926926 31.3421937,21.720998 C31.8183873,24.2510267 34.2677817,28.5215813 37.0709465,28.3057561 C37.191816,27.7926925 37.2567403,27.2681098 37.2645892,26.7411392 C37.3399981,25.4967791 39.387677,23.2405933 40.5830485,21.2573219 C41.7784199,19.2740505 42.0521265,17.7177882 44.0216034,17.5623012 C45.9910804,17.4068142 46.1526045,26.5740487 46.1526045,26.5740487 C54.8539594,21.8918017 50.6291963,12.2121563 50.6291963,12.2121563 Z" id="_1"></path>
            </g>
        </g>
    </g>
</svg>