<?xml version="1.0" encoding="UTF-8"?>
<svg width="200px" height="200px" viewBox="0 0 200 200" version="1.1" xmlns="http://www.w3.org/2000/svg" xmlns:xlink="http://www.w3.org/1999/xlink">
    <!-- Generator: Sketch 54.1 (76490) - https://sketchapp.com -->
    <title>logo9</title>
    <desc>Created with Sketch.</desc>
    <g id="Page-1" stroke="none" stroke-width="1" fill="none" fill-rule="evenodd" opacity="0.501302083">
        <g id="logo9" fill="#000000" fill-rule="nonzero">
            <g id="tylertone" transform="translate(31.000000, 75.000000)">
                <path d="M56.0039107,38.9412591 C54.404765,38.9412591 53.3211909,39.7329569 53.3211909,40.9987309 C53.3211909,43.6254712 57.2978666,42.7084212 57.2978666,44.3540217 C57.2978666,44.9232901 56.782389,45.2503367 55.9197204,45.2503367 C55.1304365,45.2503367 54.1838595,44.8705102 53.4264288,44.1749472 L52.8898096,45.2503367 C53.7153418,45.9981611 54.7863352,46.4151607 55.8986729,46.4218609 C57.5188661,46.4218609 58.6761068,45.6094282 58.6761068,44.2908743 C58.6866306,41.6320892 54.7098609,42.4973018 54.7098609,40.8828038 C54.7098609,40.3870501 55.1833373,40.1127834 55.9091967,40.1127834 C56.4667694,40.1127834 57.2663892,40.3125928 58.0659151,40.797979 L58.5813927,39.700912 C57.8118401,39.2067539 56.9176464,38.9432111 56.0039107,38.9412591 Z M67.017147,38.994039 L65.77581,38.994039 L65.77581,43.320102 C65.77581,44.5755085 65.0288091,45.3144265 63.8294733,45.3144265 C62.6196138,45.3144265 61.8516593,44.5651411 61.8516593,43.320102 L61.8516593,38.994039 L60.6102283,38.994039 L60.6102283,43.320102 C60.6102283,45.2503367 61.8306117,46.4322284 63.8189495,46.4322284 C65.8072874,46.4322284 67.017147,45.2503367 67.017147,43.320102 L67.017147,38.994039 L67.017147,38.994039 Z M69.4241812,38.994039 L69.4241812,46.3794486 L70.6654242,46.3794486 L70.6654242,44.1532697 L72.3595658,44.1532697 C74.2115643,44.1532697 75.2733391,43.1824974 75.2733391,41.5152195 C75.2733391,39.9120314 74.2115643,38.994039 72.3595658,38.994039 L69.4241812,38.994039 Z M70.6654242,40.1127834 L72.3069469,40.1127834 C73.442952,40.1127834 74.0847151,40.5764921 74.0847151,41.5472644 C74.0847151,42.5500816 73.442952,43.0354678 72.3069469,43.0354678 L70.6654242,43.0354678 L70.6654242,40.1127834 Z M77.1337942,38.994039 L77.1337942,46.3794486 L78.3759768,46.3794486 L78.3759768,44.1532697 L80.0691789,44.1532697 C81.9211773,44.1532697 82.9838918,43.1824974 82.9838918,41.5152195 C82.9838918,39.9120314 81.9211773,38.994039 80.0691789,38.994039 L77.1337942,38.994039 Z M78.3759768,40.1127834 L80.0165599,40.1127834 C81.1525651,40.1127834 81.7943281,40.5764921 81.7943281,41.5472644 C81.7943281,42.5500816 81.1525651,43.0354678 80.0165599,43.0354678 L78.3759768,43.0354678 L78.3759768,40.1127834 Z M86.0855898,45.2503367 L86.0855898,38.994039 L84.8434072,38.994039 L84.8434072,46.3794486 L89.2727937,46.3794486 L89.2727937,45.2503367 L86.0855898,45.2503367 Z M94.1109165,43.9214154 L96.814214,38.994039 L95.5522993,38.994039 L93.4898251,42.5915515 L91.3860075,38.994039 L90.1344287,38.994039 L92.8800093,43.9638277 L92.8800093,46.3794486 L94.1109165,46.3794486 L94.1109165,43.9214154 L94.1109165,43.9214154 Z M58.0641298,4.40683507 C58.495699,4.56423213 58.8095333,4.32813654 58.2603233,4.05264455 C55.2394328,2.40016387 47.1577288,0.31479413 38.8798313,0.0393963911 C38.0166929,0 37.1928308,0 36.3296924,0 C18.3222727,0 0.236394376,6.25610921 0.00101862161,14.754891 C-0.0774399631,18.2174379 4.39498125,19.4371238 7.02348478,19.4768029 C7.07882689,19.4832563 7.13461618,19.4692496 7.18040195,19.4374065 C6.86656762,19.2801037 2.62952215,17.9029265 2.94345045,15.3846677 C3.57158894,10.1120546 18.0477146,1.5738764 38.2913449,1.5738764 C39.0367485,1.5738764 39.8213343,1.5738764 40.5667379,1.61317854 C50.0608844,1.92797267 57.3971849,4.09204094 58.0641298,4.40683507 Z M9.02431964,38.8739648 C9.10277822,39.9757443 9.80899945,40.4083506 10.4759444,40.3687657 C11.5351823,40.3301233 14.2421444,38.3621887 14.320603,37.6147883 C13.1437242,38.3621887 12.2414035,38.7165677 11.3389888,38.7561526 C11.0251545,36.1590068 22.0492904,19.279821 28.7187399,11.3317404 C30.9156742,8.73478311 32.641951,7.31839802 33.5442717,7.31839802 C33.9152106,7.31613265 34.2649706,7.49151249 34.4857747,7.79049497 C34.1327581,6.13792003 32.4850338,5.03623483 31.0726853,5.03623483 C30.3664641,5.03623483 29.4641434,5.70540798 28.326447,6.80681044 C27.2279328,7.8691935 25.7371257,9.4430699 23.893208,11.7643467 C17.1452999,20.4211853 8.74976157,35.1363971 9.02431964,38.8743418 L9.02431964,38.8739648 Z M41.6994543,20.4990356 C42.2486644,19.9090322 42.7586922,19.5548417 43.0725265,19.5942381 C43.3471786,19.6336345 43.5040957,19.8298624 43.5040957,19.6729366 C43.5040957,18.6892521 41.9740124,17.1154699 41.0716917,17.1154699 C40.8755922,17.1154699 40.7185811,17.1547721 40.4832053,17.3510943 C38.3254533,19.0823678 35.2653806,22.4657449 33.1860871,24.4732644 C31.3421694,26.2828594 27.3405937,29.8238221 25.4573997,30.6108074 C25.4573997,29.469443 27.379776,26.0076501 29.3806109,23.4101273 C30.7148766,21.6401172 32.3230427,19.7512582 32.9511812,19.8299567 C33.2650155,19.8691646 33.3827504,20.0661465 33.3827504,19.9087495 C33.3827504,18.8856686 31.8919433,17.3510943 30.9503463,17.3510943 C30.7437839,17.3554255 30.5469317,17.4398798 30.4011362,17.5867186 C29.4203569,18.373704 27.811815,20.1439026 26.4779251,22.0722522 C24.2416205,25.1806087 22.0839625,29.1541777 22.0839625,30.846903 C22.0839625,31.7912854 23.3001175,32.8534799 23.9278802,32.8534799 L24.2417145,32.8534799 C26.59566,32.3812887 32.1273191,26.4793701 36.0897125,22.4266313 C30.5580534,28.8007411 25.2224938,39.2275898 23.1824766,43.7129349 C22.4762554,45.3651329 21.6523933,47.0965006 21.5347524,48.2774498 C21.4170175,48.9852654 22.0055039,51.1492394 23.5747696,50.9918423 C23.770963,50.9918423 23.9278802,50.9522574 24.0063387,50.8740301 C24.4379079,48.9852654 29.6164564,40.7223907 35.2266681,36.2370456 C35.2266681,36.2370456 35.2266681,36.0004787 35.0304746,36.0004787 C33.8927782,36.3548578 28.2041079,41.5885458 25.1048529,45.8769089 C27.4195221,41.509376 33.6573084,30.295542 36.7174751,26.4793701 C38.4431881,24.3551694 40.0516361,22.2307803 41.6994543,20.4994126 L41.6994543,20.4990356 Z M45.1478736,18.0202674 C40.361618,25.5357417 38.5569766,29.3519136 38.5569766,30.5328629 C38.5569766,30.9654692 38.6354352,31.0436964 38.6746175,31.1228662 C38.9095234,31.7128696 39.7731316,32.5394398 40.086966,32.6968369 C40.4400766,32.8928763 40.8323695,33.0502734 41.3423973,32.8542339 C43.6963428,31.9880788 50.5225215,24.8269836 52.4449917,22.6234247 C52.5079666,22.5472086 52.498327,22.4344087 52.4233394,22.3700547 C52.3483518,22.3057008 52.2357586,22.3136011 52.1704337,22.3878004 C49.8556705,24.5121895 43.3432321,30.9258843 41.6560437,30.7289023 C42.5976407,28.2114918 45.5399786,23.2143706 48.9531619,18.0202674 C50.9148144,15.1480066 52.5237322,12.8265413 54.2102629,10.6625673 C55.9364457,8.53780115 58.4864907,4.83925287 59.8596569,5.46874688 C60.6050604,5.90163594 59.0357947,3.61947275 56.8387664,3.73756767 C56.4857498,3.73756767 55.975722,4.05226755 55.3872357,4.52445874 C54.4064564,5.31144407 53.3079422,6.57052634 52.1309695,8.10500635 C50.0910463,10.780945 47.5801836,14.2040955 45.1477796,18.0206444 L45.1478736,18.0202674 Z M52.4821069,27.3453367 C56.8760695,27.2275245 64.4085635,21.5612302 64.4085635,19.1220469 C64.4085635,18.0202674 62.603922,17.1153757 62.0154357,17.1153757 C60.3284352,17.1153757 56.8368872,18.3350616 53.580621,21.0503966 C51.1094105,23.1352008 49.1080119,25.613969 48.1666028,27.8571128 C47.8527685,28.7223254 47.6173927,29.5093107 47.6173927,30.4536931 C47.6173927,31.5158876 49.1865644,32.9324612 50.4028134,32.9324612 C55.6206382,32.9324612 63.4277842,25.416987 66.370216,22.6630096 C66.4878569,22.5451974 66.2132988,22.3482155 66.095564,22.4273853 C62.1331705,25.7317811 54.9536932,31.2010935 52.089814,31.2010935 C51.2266756,31.2010935 50.873565,30.9258843 50.9128412,30.4536931 C51.0304821,29.4314604 51.7758857,28.1722839 52.4820129,27.3457137 L52.4821069,27.3453367 Z M63.1531321,18.2961364 C62.9182262,19.7913143 56.405318,26.1659897 52.9921347,26.5587283 C54.2866543,24.4739241 58.7983518,19.7126158 63.1531321,18.2961364 Z M65.8961758,22.1911954 C64.3270041,24.4343392 62.561545,27.1487317 61.5806718,29.3918755 C61.1099203,30.296673 60.9135389,31.0440734 60.9921854,31.3984525 C61.2668374,32.5002319 62.2084344,33.7198235 63.3461309,33.4446143 C62.4829925,33.0506504 64.8369379,29.5888575 66.8377728,27.4248834 C69.5050828,24.4739241 71.3495642,22.8999535 74.9586591,20.7746218 C73.9391673,21.9555711 72.6828904,24.2373573 72.6828904,25.3391367 C72.6828904,25.8113279 73.860239,27.1883166 74.566836,27.1883166 C77.2738921,27.1883166 81.9814072,22.7811988 82.6870646,21.8377589 C82.6485401,21.7585891 82.4126945,21.798174 82.3732303,21.8377589 C79.941484,24.0017329 77.2344279,25.771743 75.3514219,25.9291401 C76.6452838,22.8603686 79.9020198,19.9876365 80.765534,19.0830275 C81.0399042,18.7682334 79.4312683,17.0763563 78.999981,17.1157527 C78.1759309,17.1944512 76.9985823,17.8633416 75.4688748,18.9650268 C72.0946859,21.4042101 68.1716627,24.7095485 66.0923693,27.4248834 C66.9162314,25.968725 68.2893975,24.1195451 69.3481656,22.7029715 C70.5255142,21.1290008 71.8983045,19.5945208 72.4874486,19.6339172 C72.801283,19.6732194 72.9187359,19.8695416 72.9187359,19.7126158 C72.9187359,18.7289312 71.427553,17.1944512 70.48605,17.1944512 C70.3291328,17.1944512 70.1722157,17.2337534 69.9373097,17.3911504 C68.9561546,18.1780415 67.269248,20.1846185 65.8960818,22.1911954 L65.8961758,22.1911954 Z M89.2352087,10.5842457 C84.841528,11.0957391 80.525836,12.1974243 80.6827532,13.9678114 C80.8011458,15.2268937 82.1344719,15.9744826 82.7621406,15.9744826 C81.7426488,15.3842907 84.0569421,13.4957144 87.7844296,12.7480313 C86.3327109,14.6760039 85.1948265,16.4072774 84.1358705,18.0204559 C79.3099628,25.4963453 77.5444098,29.3521021 77.5444098,30.5330514 C77.5444098,30.9656577 77.6233382,31.0438849 77.6618628,31.1230547 C77.8977083,31.7130581 78.7602829,32.5396283 79.0741173,32.6970254 C79.4274158,32.8930648 79.8201786,33.0504619 80.3294546,32.8544224 C82.6841518,31.9882673 89.5105185,24.8271721 91.4329887,22.6236132 C91.4961335,22.5472056 91.4863958,22.4340947 91.4111273,22.369676 C91.3358588,22.3052573 91.2229657,22.3134144 91.157679,22.3879889 C88.8433856,24.512378 82.3308533,30.9260728 80.6442286,30.7290908 C81.5857316,28.2116803 84.5276936,23.2145591 87.9413468,18.0204559 C89.5105185,15.6990849 90.8043804,13.7320928 92.2560991,11.921838 C98.8080957,10.9381535 105.987761,10.8987571 113.755631,11.5676475 C114.226382,11.6070439 114.069465,11.5283454 113.755631,11.4496469 C108.145137,10.2692631 99.8670517,9.95446899 93.5509007,10.2692631 C95.2769896,8.02611932 97.5922225,4.87874352 98.8475599,5.46893538 C99.5926815,5.90182444 98.0235098,3.61966125 95.8266695,3.73775617 C95.4733709,3.73775617 94.9631552,4.05245605 94.3749507,4.52464724 C93.3939835,5.31182107 92.2955633,6.57090334 89.2352087,10.5842457 Z M103.906494,17.9026438 C104.063411,17.9026438 104.180864,17.9026438 103.984483,17.7846431 C103.710113,17.5490187 103.082444,17.1154699 101.591261,17.1154699 C95.3925633,17.1154699 86.8006435,23.529259 86.8006435,29.9420112 C86.8275689,31.6025963 88.1297337,32.9597713 89.7830094,33.0503676 C93.9408446,33.2869345 102.062013,27.6206402 103.120969,22.3878946 C103.31735,22.4661219 103.710113,22.5452917 104.298317,22.5452917 C105.083207,22.5456448 105.863577,22.4261497 106.612611,22.1909127 C108.535081,21.5613244 110.104253,20.2635055 110.300634,19.7121445 C109.869347,19.6727481 108.417628,21.2076994 105.7895,21.4433237 C104.220329,21.5611359 103.277886,20.6563384 102.532764,19.4366525 C102.454776,19.3186519 102.022549,19.0038577 101.630725,19.0432541 C101.12051,19.0825563 99.9431612,20.263317 99.8257082,20.6563384 C99.6687911,21.0503023 100.061554,22.2303091 100.257935,22.5846881 C97.6288679,26.597842 92.0183743,32.8927821 89.821534,31.9879846 C87.6246936,31.0436022 95.8238506,17.7845488 102.925527,17.7845488 C103.199897,17.7846431 103.513732,17.8632474 103.906494,17.9026438 Z M122.144592,19.8698243 C122.654807,19.4371238 121.39947,17.3124519 120.457967,17.3124519 C119.123701,17.3124519 112.219346,22.6238017 107.825665,26.9526923 C107.001615,27.7396776 106.256493,28.5266629 105.824266,29.1553087 C106.41341,28.0544717 108.453334,25.1421548 110.296876,22.7029715 C111.474224,21.1685857 112.925943,19.5158223 113.435219,19.5550302 C113.749053,19.5943323 113.90597,19.7906545 113.90597,19.6337287 C113.90597,18.6500442 112.415727,17.1155642 111.43476,17.1155642 C111.246359,17.115961 111.064712,17.1859898 110.924544,17.3122634 C109.905052,18.0991545 108.178024,20.18443 106.765769,22.1910069 C105.471907,24.0015444 103.980725,26.3229155 103.039222,28.1720954 C102.058254,29.9816904 101.861873,31.0438849 101.940801,31.3200367 C102.254636,32.4604585 103.196139,33.719635 104.372548,33.4444258 C103.784343,33.1692166 104.058713,32.1060795 105.118609,30.8478455 C105.556442,30.2693408 106.028017,29.7173293 106.530863,29.1947051 C109.434301,26.0467638 115.200772,21.2862094 118.418044,19.8304279 C116.378121,21.6801733 111.826583,28.2503227 111.826583,30.4934665 C111.826583,30.9260728 112.101893,31.5160761 112.53318,32.0278522 C112.925943,32.5000434 113.35723,32.8544224 113.749053,32.8544224 C116.10375,32.8544224 122.49789,26.3615579 125.911543,22.6236132 C126.028996,22.505801 125.832615,22.1910069 125.597709,22.3879889 C123.087034,24.7489448 117.476541,30.1390874 115.004391,30.8082606 C115.083319,28.9592692 121.164564,20.6568097 122.144592,19.8698243 Z M125.083735,27.3457137 C129.477416,27.2279015 137.00944,21.5616072 137.00944,19.1224239 C137.00944,18.0206444 135.205362,17.1157527 134.616218,17.1157527 C132.929593,17.1157527 129.437951,18.3354386 126.182155,21.0507736 C123.710005,23.1355778 121.709546,25.614346 120.768043,27.8574898 C120.454208,28.7227024 120.218363,29.5096877 120.218363,30.4540701 C120.218363,31.5162646 121.787535,32.9328382 123.004347,32.9328382 C128.222078,32.9328382 136.029412,25.417364 138.971374,22.6633866 C139.088827,22.5455744 138.814457,22.3485925 138.697004,22.4277623 C134.73461,25.7321581 127.554945,31.2014705 124.690972,31.2014705 C123.827458,31.2014705 123.475099,30.9262613 123.513623,30.4540701 C123.632016,29.4314604 124.377138,28.1722839 125.083735,27.3457137 Z M135.754102,18.2961364 C135.519196,19.7913143 129.006664,26.1659897 125.593011,26.5587283 C126.887812,24.4739241 131.399886,19.7126158 135.754102,18.2961364 Z" id="Tylertone"></path>
            </g>
        </g>
    </g>
</svg>