<?xml version="1.0" encoding="UTF-8"?>
<svg width="200px" height="200px" viewBox="0 0 200 200" version="1.1" xmlns="http://www.w3.org/2000/svg" xmlns:xlink="http://www.w3.org/1999/xlink">
    <!-- Generator: Sketch 54.1 (76490) - https://sketchapp.com -->
    <title>logo6</title>
    <desc>Created with Sketch.</desc>
    <g id="Page-1" stroke="none" stroke-width="1" fill="none" fill-rule="evenodd" opacity="0.501302083">
        <g id="logo6" fill="#000000" fill-rule="nonzero">
            <g id="record" transform="translate(30.000000, 89.000000)">
                <path d="M9.60495696,18.7838991 L13.6047327,18.7838991 L10.2761656,13.6183367 C12.175961,12.7241459 13.2043626,10.9797668 13.2043626,8.56474454 C13.2043626,5.09877315 10.880646,3.1308463 6.79059074,3.1308463 L0,3.1308463 L0,18.7838991 L3.52875207,18.7838991 L3.52875207,14.3117667 L7.12423248,14.3117667 L9.60495696,18.7838991 Z M3.52875207,11.3585013 L3.52875207,6.05857457 L6.79059074,6.05857457 C8.73356324,6.05857457 9.85224437,6.93076415 9.85224437,8.67514331 C9.85224437,10.4639177 8.73356324,11.3585013 6.79059074,11.3585013 L3.52875207,11.3585013 Z M37.0146073,6.05857457 L37.0146073,3.12927478 L25.109485,3.12927478 L25.109485,18.7823276 L37.2618947,18.7823276 L37.2618947,15.8530278 L28.638237,15.8530278 L28.638237,12.3870564 L36.190316,12.3870564 L36.190316,9.45775667 L28.638237,9.45775667 L28.638237,6.05857457 L37.0146073,6.05857457 L37.0146073,6.05857457 Z M56.1813441,3.0173045 C51.4475566,3.0173045 47.848151,6.4164866 47.848151,10.9334071 C47.848151,15.4731146 51.3808282,18.939086 56.0478874,18.939086 C58.4397536,18.8705143 60.7096721,17.8670866 62.3713797,16.1437577 L60.2949505,13.885101 C59.2225752,14.9929133 57.7679561,15.6489329 56.2284465,15.7190564 C53.5933672,15.6853771 51.4748878,13.5377134 51.4748878,10.9000125 C51.4748878,8.2623116 53.5933672,6.11464788 56.2284465,6.08096862 C57.8085525,6.16063192 59.2832144,6.89863625 60.2949505,8.11607765 L62.3478285,5.61147919 C60.7075873,3.97722276 58.4955422,3.04720255 56.1813441,3.01887601 L56.1813441,3.0173045 Z M80.3762582,3.0173045 C75.5953683,3.0173045 71.9763367,6.39605693 71.9763367,10.9558012 C71.9763367,15.4951158 75.5953683,18.939086 80.3762582,18.939086 C85.1571481,18.939086 88.7761797,15.4731146 88.7761797,10.9558012 C88.7761797,6.41805811 85.1571481,3.01887601 80.3762582,3.01887601 L80.3762582,3.0173045 Z M80.4194353,6.10336268 C83.0554449,6.17827208 85.1535034,8.33871501 85.1535034,10.9781953 C85.1535034,13.6176755 83.0554449,15.7781184 80.4194353,15.8530278 C77.7368644,15.8324881 75.5779614,13.6408442 75.5953683,10.9558012 C75.5858265,9.67025141 76.0902893,8.43426305 76.9964022,7.52311627 C77.9025151,6.61196949 79.1350282,6.10133231 80.4194353,6.10493419 L80.4194353,6.10336268 Z M109.642527,18.7823276 L113.638377,18.7823276 L110.30981,13.6167652 C112.209606,12.7225744 113.238007,10.9781953 113.238007,8.56317303 C113.238007,5.09720164 110.914291,3.12927478 106.824235,3.12927478 L100.033645,3.12927478 L100.033645,18.7823276 L103.562397,18.7823276 L103.562397,14.3117667 L107.161802,14.3117667 L109.642527,18.7823276 Z M103.562397,11.3569298 L103.562397,6.05700305 L106.824235,6.05700305 C108.771133,6.05700305 109.885889,6.92919264 109.885889,8.6735718 C109.885889,10.4623462 108.771133,11.3569298 106.824235,11.3569298 L103.562397,11.3569298 Z M125.14313,3.12770327 L125.14313,18.7807561 L131.643256,18.7807561 C136.581153,18.7807561 140,15.559155 140,10.9542297 C140,6.32533886 136.628256,3.12770327 131.780638,3.12770327 L125.14313,3.12770327 L125.14313,3.12770327 Z M128.671882,6.10179117 L131.713909,6.10179117 C134.394819,6.10179117 136.40452,8.09211208 136.40452,10.9766237 C136.40452,13.8391342 134.481173,15.8066682 131.866992,15.8066682 L128.671882,15.8066682 L128.671882,6.10257692 L128.671882,6.10179117 Z M91.993187,10.9683733 C91.993187,17.1962784 86.9955599,22 80.493187,22 C73.9908141,22 68.993187,17.1962784 68.993187,10.9683733 C68.993187,4.71021662 73.9869158,0 80.493187,0 C86.9994582,0 91.993187,4.74086112 91.993187,10.9683733 Z" id="Shape"></path>
            </g>
        </g>
    </g>
</svg>