<?xml version="1.0" encoding="UTF-8"?>
<svg width="200px" height="200px" viewBox="0 0 200 200" version="1.1" xmlns="http://www.w3.org/2000/svg" xmlns:xlink="http://www.w3.org/1999/xlink">
    <!-- Generator: Sketch 54.1 (76490) - https://sketchapp.com -->
    <title>logo3</title>
    <desc>Created with Sketch.</desc>
    <g id="Page-1" stroke="none" stroke-width="1" fill="none" fill-rule="evenodd" opacity="0.501302083">
        <g id="logo3" fill="#25221D">
            <g id="vonde" transform="translate(42.000000, 88.000000)">
                <path d="M13.0845183,0.486554981 L13.0845183,0.315064291 L0,0.315064291 L0,0.486554981 L0.339372288,0.486554981 C1.78010943,0.486554981 2.68459582,0.657738889 3.3633404,2.96872166 L9.26939044,22.6582457 L14.4407921,22.6582457 L19.3019887,5.36560316 C19.7546877,3.76788668 20.4042651,0.857453449 22.4392835,0.543309502 C22.757975,0.504715753 23.0786992,0.48576247 23.3996737,0.486554981 L23.3996737,0.315064291 L15.3735342,0.315064291 L15.3735342,0.486554981 C16.3910435,0.514778851 17.5215755,0.572146935 18.3975024,1.7704343 C18.8244139,2.46159856 19.0314864,3.26818597 18.9908722,4.08172384 C18.9522378,5.31076284 18.7527164,6.52923709 18.3975024,7.70542336 L15.2325595,19.0345462 L10.9935961,3.82525476 C10.7888634,3.17610948 10.656389,2.5059544 10.5986239,1.82718882 C10.5980162,1.02710345 10.9650366,0.486554981 13.0845183,0.486554981 Z M45.52541,11.5 C45.52541,5.27909086 40.6642134,0 34.5041658,0 C28.3441182,0 23.5105697,5.27909086 23.5105697,11.5 C23.5105697,17.7209091 28.3432068,23 34.5041658,23 C40.6651248,23 45.52541,17.7206024 45.52541,11.5 L45.52541,11.5 Z M38.5456431,11.5 L38.5456431,13.4118604 C38.5456431,17.7209091 38.2907341,22.771448 34.474391,22.771448 C30.6580478,22.771448 30.4052656,17.7209091 30.4052656,13.4118604 L30.4052656,9.58783279 C30.4052656,5.25086699 30.6592631,0.17149069 34.474391,0.17149069 C38.2895188,0.17149069 38.5456431,5.25086699 38.5456431,9.58783279 L38.5456431,11.5 L38.5456431,11.5 Z M47.6142054,0.486554981 C50.609614,0.486554981 50.7797558,1.34216774 50.7797558,3.79641733 L50.7797558,17.2947901 C50.7797558,21.0040815 50.1860822,22.488289 47.4732307,22.488289 L47.190066,22.488289 L47.190066,22.6594729 L54.5663242,22.6594729 L54.5663242,22.4858347 L54.2555114,22.4858347 C51.5423561,22.4858347 51.0045862,21.0016273 51.0045862,17.2923358 L51.0045862,3.0251694 L61.0374883,22.6570186 L66.1803305,22.6570186 L66.1803305,5.6782132 C66.1803305,1.96892173 66.7174927,0.485327856 69.4312557,0.485327856 L69.7420685,0.485327856 L69.7420685,0.313837166 L62.3658103,0.313837166 L62.3658103,0.486554981 L62.648975,0.486554981 C65.3621303,0.486554981 65.9555001,1.97014886 65.9555001,5.67944032 L65.9555001,16.5229286 L57.7595227,0.315064291 L47.4164154,0.315064291 L47.4164154,0.486554981 L47.6142054,0.486554981 L47.6142054,0.486554981 Z M70.7571471,0.486554981 C73.7531633,0.486554981 73.9223937,1.34216774 73.9223937,3.79641733 L73.9223937,19.1765859 C73.9223937,21.6308355 73.7531633,22.4870618 70.7571471,22.4870618 L70.5593571,22.4870618 L70.5593571,22.6582457 L83.0505056,22.6582457 C86.3852865,22.6582457 90.0311839,22.6294083 92.5462455,18.2068506 C93.5351952,16.466174 94.128565,14.0119245 94.128565,11.5297578 C94.128565,9.38934536 93.6761699,7.24923972 92.7440355,5.59384837 C89.833394,0.486554981 86.4414941,0.315064291 82.5701586,0.315064291 L70.5593571,0.315064291 L70.5593571,0.486554981 L70.7571471,0.486554981 L70.7571471,0.486554981 Z M82.0615559,0.486554981 C83.3330627,0.486554981 84.9153822,0.600064024 85.8481243,1.97014886 C87.0072158,3.65345729 87.0348639,6.05033879 87.0348639,11.2438377 C87.0348639,18.3209732 86.9218411,21.2314064 85.1131721,22.1158566 C84.3090488,22.3722815 83.4695733,22.4975899 82.6263662,22.4870618 C80.5922593,22.4870618 80.4221174,21.8593875 80.4221174,19.1765859 L80.4221174,0.486554981 L82.0627712,0.486554981 L82.0615559,0.486554981 Z M105.684541,19.1765859 L105.684541,10.8717121 C108.369744,10.8717121 109.755793,11.7849997 110.686712,14.2104119 C110.870351,14.9283288 110.965359,15.6664213 110.969573,16.4078856 L111.167667,16.4078856 L111.167667,5.16466147 L110.969573,5.16466147 C110.964762,5.91538022 110.869781,6.66273794 110.686712,7.39035907 C109.754578,9.78754735 108.369744,10.6729179 105.684541,10.6729179 L105.684541,0.486554981 C108.256721,0.486554981 109.612995,0.686269541 111.195315,1.82718882 C113.478887,3.43027114 114.832343,6.06756318 114.812653,8.87579363 L114.982491,8.87579363 L114.982491,0.313837166 L95.8217806,0.313837166 L95.8217806,0.486554981 L95.9916186,0.486554981 C98.987331,0.486554981 99.185121,1.34216774 99.185121,3.79641733 L99.185121,19.1765859 C99.185121,21.6308355 98.987331,22.4870618 95.9916186,22.4870618 L95.8217806,22.4870618 L95.8217806,22.6582457 L116,22.6582457 L116,12.7553487 L115.830162,12.7553487 C115.547605,18.6906445 113.738936,20.6310356 110.714968,22.0005069 C110.036831,22.314344 108.652301,22.4573041 107.29542,22.4573041 C105.91089,22.4573041 105.684541,22.2287521 105.684541,19.1753588 L105.684541,19.1765859 Z" id="VONDE"></path>
            </g>
        </g>
    </g>
</svg>