<?xml version="1.0" encoding="UTF-8"?>
<svg width="196px" height="90px" viewBox="0 0 196 90" version="1.1" xmlns="http://www.w3.org/2000/svg" xmlns:xlink="http://www.w3.org/1999/xlink">
    <!-- Generator: Sketch 64 (93537) - https://sketch.com -->
    <title>Group 14</title>
    <desc>Created with Sketch.</desc>
    <g id="Page-1" stroke="none" stroke-width="1" fill="none" fill-rule="evenodd">
        <g id="Desktop-HD" transform="translate(-622.000000, -43.000000)" fill="#0A0B09">
            <g id="Group" transform="translate(79.000000, 8.000000)">
                <g id="Group-3">
                    <g id="Group-14" transform="translate(543.000000, 35.000000)">
                        <path d="M107.969532,22.3630955 C107.934302,24.4210006 107.910022,27.4636154 107.903357,28.0167732 C107.456797,28.0108412 106.773626,27.9994716 106.368485,27.9925509 C105.113069,27.968823 103.720068,27.0854513 103.766247,24.2558936 C103.792908,22.7298901 103.801477,20.6438081 103.806714,20.4890821 L103.806714,21.9958067 C103.809094,21.7778062 103.826709,18.9838405 103.846704,17.844899 C105.975245,18.008523 108.030946,18.5399301 107.969532,22.3630955 M91.7300669,14.0133299 C87.1016457,13.8225177 84.6784134,11.4877866 84.7717245,6.33635046 C84.8279016,3.22848376 84.873605,2.34214608 84.8940763,1.23533623 C85.4906009,1.24275121 86.8526573,1.25510952 88.5870061,1.28674678 C90.9393029,1.32777636 91.9295432,3.3748061 91.9057393,4.75745334 C91.8895527,5.5483849 91.8038589,9.46893378 91.7300669,14.0133299 M91.6286625,20.2162107 L91.6286625,20.2750362 C91.625806,20.4342112 91.6158084,22.5178215 91.5953371,24.0388818 C91.5463012,26.8738771 90.1323523,27.7073212 88.8731284,27.6850763 C88.4641782,27.67865 87.7871966,27.6677747 87.3392081,27.6603597 C87.3492057,27.1012699 87.3734857,24.0635984 87.4072871,22.0002557 C87.4677489,18.1800563 89.5396363,17.7247763 91.6719855,17.6323361 C91.6534185,18.7683116 91.6310429,20.0046365 91.6286625,20.2162107 M104.081886,4.96952186 C104.105214,3.59280661 105.161153,1.57741413 107.513926,1.61696071 C109.245894,1.64513765 110.605571,1.68072957 111.205904,1.6950652 C111.190193,2.80138072 111.15782,3.68672974 111.110688,6.7985511 C111.035468,11.9539419 108.542252,14.1982102 103.907166,14.2253984 C103.978578,9.68594562 104.067604,5.76045342 104.081886,4.96952186 M104.515593,15.7355834 C110.889312,15.8334612 113.801476,13.0029149 113.893359,6.34079945 C113.969055,0.940219893 114,0.555135089 114,0.555135089 L113.996667,0.555135089 L113.999048,0.555135089 C113.999048,0.555135089 110.295644,0.494826558 106.561296,0.424631382 C102.198526,0.348504219 100.375626,3.11429302 100.316593,6.87912725 C100.283744,8.84014319 100.226614,10.7729822 100.172342,14.1616296 L95.4639394,14.0825364 C95.5196404,10.6889457 95.5781979,8.75610671 95.6091429,6.7985511 C95.6681764,3.03223387 93.9366841,0.204159209 89.5753421,0.127043382 C85.8367089,0.0603085315 82.137114,0 82.137114,0 L82.1390183,0 L82.1356858,0 C82.1356858,0 82.0995039,0.383601807 82.0038124,5.78220404 C81.8814606,12.4428364 84.6998368,15.3752152 91.0735566,15.5022586 C91.3011215,15.5096736 91.5105954,15.5111566 91.7048348,15.5170886 C91.699598,15.8646041 91.6957894,16.205199 91.68722,16.5289866 C88.6650827,16.5428279 84.7469685,17.0322168 84.6755569,21.399642 C84.6193798,24.9059405 84.5855783,28.5437314 84.5855783,28.5437314 C84.5855783,28.5437314 84.725545,28.5481803 88.7512527,28.6159039 C92.7760082,28.6880764 95.2768411,27.3247081 95.3377789,23.507969 C95.363011,22.0976391 95.3987168,18.1607773 95.4401355,15.5813517 L100.147109,15.6643996 C100.10331,18.2433308 100.067129,22.1801926 100.041896,23.5910168 C99.9828629,27.4072616 102.439421,28.855655 106.458463,28.9263445 C110.478934,28.9945623 110.62747,29 110.62747,29 C110.62747,29 110.658415,25.3572658 110.716496,21.8573937 C110.786956,17.4884855 106.887409,16.8606835 103.867176,16.7440211 C103.870508,16.4182562 103.877649,16.0821103 103.88241,15.7306401 C104.074269,15.7311344 104.281839,15.7355834 104.515593,15.7355834" id="Fill-1"></path>
                        <path d="M94.7902847,31.5812709 C94.795508,31.3014409 94.7991643,31.0785079 94.8022983,30.9021271 C94.8054322,30.777988 94.8054322,30.7159185 94.7270828,30.714884 C94.6273178,30.7128151 94.2319143,30.9072995 94.1154348,30.9522999 C94.088796,30.9631621 94.0616349,30.973507 94.0391747,30.9719552 C94.0245495,30.9719552 94,30.9450585 94,30.9150582 C94.001567,30.882989 94.0271611,30.8581612 94.0537999,30.843161 C94.0752155,30.8333334 95.0921912,30.1960864 95.2770958,30.0657405 C95.3246278,30.033154 95.3726822,29.9984985 95.4139462,30.0000503 C95.4609559,30.0000503 95.4755811,30.0590163 95.4734918,30.1107409 C95.4734918,30.1521205 95.4343171,30.6636767 95.4196918,31.4560974 L95.4040219,32.4150712 C95.3951423,32.9121445 95.3883521,33.352838 95.4050666,33.5824951 C95.4186472,33.7480138 95.442152,33.8266352 95.6098198,33.8659459 C95.6886916,33.8824977 95.912771,33.9011186 95.9529903,33.9021531 C95.9754505,33.9021531 96,33.9192222 96,33.9559466 C96,33.9931884 95.9738835,34.000947 95.9174719,33.9999125 C95.5184121,33.9947401 95.1830765,33.9724985 95.0415252,33.9699123 C94.9224341,33.9673261 94.4821102,33.9766365 94.1467746,33.9709468 C94.088796,33.9699123 94.0579786,33.9590501 94.0595456,33.9218084 C94.0595456,33.8856012 94.0809611,33.8716356 94.1013319,33.8716356 C94.1593105,33.8721528 94.4267433,33.8612907 94.5207626,33.8426698 C94.6905197,33.8090488 94.7166362,33.7355999 94.7354401,33.5705985 C94.7605119,33.3430103 94.7777488,32.9033513 94.7814051,32.4052435 L94.7902847,31.5812709" id="Fill-3"></path>
                        <path d="M97.9996909,31.4025628 C97.971382,32.8251498 96.5058058,33.6975483 95.7680046,33.9812551 C95.7367468,33.9964537 95.7084379,34 95.6606666,34 C95.6364861,33.9984801 95.6069976,33.9731492 95.6069976,33.9483248 C95.6081772,33.9138747 95.6500508,33.8824643 95.6807188,33.8627062 C96.3005661,33.5521485 97.2388888,32.7329451 97.2630693,31.5342838 C97.2813521,30.6355411 96.8455128,30.2332854 96.3908008,30.2266993 C95.9649875,30.2211265 95.6748211,30.5413099 95.6653848,30.9729496 C95.6500508,31.7501036 96.2321529,31.9410991 96.4332642,31.9436322 C96.6396833,31.9466719 96.7594065,31.9198211 96.8366662,31.8894239 C96.9027204,31.8605466 96.9316191,31.834709 96.9552098,31.834709 C96.9799801,31.8362289 97.0041607,31.8554804 97.0041607,31.881318 C97.0018016,31.8970232 96.9835187,31.9274204 96.9723131,31.9360329 C96.7959722,32.091565 96.4887025,32.1629984 96.1861509,32.1589454 C95.3362936,32.1467865 94.9924582,31.5884921 95.0001252,31.161412 C95.0142797,30.4764627 95.6276396,29.987575 96.5370635,30.0002405 C97.501336,30.0144258 98.0144351,30.6309815 97.9996909,31.4025628" id="Fill-5"></path>
                        <path d="M100.858252,30.089731 C100.969288,30.0928075 101,30.1076772 101,30.1328019 C100.999409,30.1651051 100.975194,30.206125 100.956294,30.2271477 C100.453089,30.8244999 99.4903843,32.8519082 99.3887982,33.5082266 C99.3752141,33.5938556 99.3858452,33.631799 99.3846639,33.6979436 C99.3817108,33.8025443 98.8997678,34.0035418 98.6333998,33.9999526 C98.5678413,33.9994398 98.5501228,33.9830319 98.5518947,33.9363717 C98.5524853,33.8861224 98.5666601,33.8102356 98.5967815,33.727683 C98.7733759,33.235957 99.5594864,31.7315523 100.398752,30.5568451 L98.8649214,30.5347969 C98.70073,30.5322331 98.4508993,30.5378734 98.3079701,30.6183749 C98.2004779,30.6783665 98.1189728,30.8429589 98.1065699,30.9234604 C98.0994825,30.9655058 98.0811734,30.9906305 98.0457364,30.9906305 C98.0049838,30.989605 97.9984871,30.9639675 98.0002589,30.9121799 C98.0038026,30.7214374 98.1036168,30.1230597 98.1053886,30.0717848 C98.1065699,30.0199972 98.1307851,30 98.1656315,30 C98.2010685,30.0015382 98.3357291,30.0553769 98.964145,30.0625553 L100.858252,30.089731" id="Fill-7"></path>
                        <path d="M100.000347,32.5097234 C100.02032,31.5114509 100.920842,30.4549672 102.169475,30.0291056 C102.220835,30.0097019 102.268201,30 102.297305,30 C102.330975,30.0015319 102.364645,30.0168506 102.364645,30.0474882 C102.362933,30.0934444 102.282468,30.1276563 102.218553,30.1582938 C101.542876,30.4856047 100.738227,31.3026052 100.7154,32.5250422 C100.704557,33.1245163 100.983616,33.7679042 101.561708,33.7765849 C101.955472,33.7837336 102.285892,33.5217828 102.298447,32.9279256 C102.310431,32.2171351 101.888704,31.8979943 101.510918,31.8928881 C101.367679,31.8908456 101.292921,31.9046324 101.213597,31.9245468 C101.166802,31.9337381 101.1143,31.9521206 101.086337,31.9521206 C101.06294,31.9521206 101.041254,31.93527 101.041254,31.9005474 C101.042396,31.864293 101.072071,31.8443787 101.10574,31.8254855 C101.279796,31.7197861 101.53774,31.6472773 101.852751,31.6518729 C102.659683,31.6641279 103.009505,32.2544108 102.999804,32.7088673 C102.984966,33.5018684 102.31785,34.013515 101.482955,33.9997281 C100.601836,33.9884944 99.9832265,33.4349765 100.000347,32.5097234" id="Fill-9"></path>
                        <path d="M91.9599364,33 L84.7780604,32.9072165 C84.5305246,32.9072165 85.5368839,32.9226804 85.2507154,32.916953 C84.9206677,32.9072165 84.5562798,32.871134 84.2410175,32.7285223 C83.8957075,32.5790378 83.5031797,32.2038946 83.1740859,31.5418099 C83.1302067,31.4524628 83.0877583,31.3419244 83.0314785,31.1930126 C83.0109698,31.1460481 83,31.0945017 83,31.0544101 C83,31.0320733 83.0152623,31 83.045787,31 C83.0748808,31.0040092 83.0953895,31.0372279 83.1511924,31.1563574 C83.1841017,31.2457045 83.2432432,31.3505155 83.3586645,31.489118 C83.7917329,32.0177549 84.3650238,32.0234822 85.4829889,32.0452463 L90.3340223,32.1197022 C91.2039746,32.1317297 91.3656598,32.1351661 91.5497615,32.1271478 C91.7410175,32.1197022 91.8321145,32.0652921 91.8793323,31.8367698 C91.8893482,31.7852234 91.899841,31.6660939 91.9007949,31.5715922 C91.9007949,31.497709 91.9117647,31.4558992 91.9537361,31.4558992 C91.990461,31.4558992 92,31.5045819 92,31.6093929 C91.9942766,31.9707904 91.9747218,32.4037801 91.9704293,32.5836197 L91.9599364,33" id="Fill-11"></path>
                        <path d="M104.030511,32.5837389 C104.029081,32.4039508 104.006198,31.9705125 104,31.609791 C104,31.50501 104.010965,31.4563413 104.049104,31.4563413 C104.09201,31.4563413 104.103452,31.4981391 104.104405,31.5720011 C104.104405,31.6659032 104.111556,31.7849986 104.122521,31.8365302 C104.167811,32.0655597 104.259344,32.1193816 104.454329,32.1268251 C104.636919,32.1348411 104.796625,32.1319782 105.66333,32.1193816 L110.515068,32.0455196 C111.635873,32.0231892 112.208433,32.0180361 112.639402,31.488978 C112.751435,31.3504151 112.811026,31.2462067 112.851072,31.1563126 C112.900653,31.0372173 112.925443,31.0045806 112.952617,31 C112.981698,31 112.999814,31.0326367 112.999814,31.0543945 C113.001721,31.0950472 112.988849,31.1465789 112.967396,31.1935299 C112.912094,31.3423991 112.867281,31.4523332 112.821038,31.5422273 C112.496858,32.2041225 112.106411,32.5785857 111.756487,32.7286001 C111.442319,32.8711709 111.077616,32.9066705 110.750099,32.9169768 C110.46215,32.9227025 111.468062,32.9066705 111.222544,32.9066705 L104.041953,33 L104.030511,32.5837389" id="Fill-13"></path>
                        <path d="M13.7645518,56.8061788 C13.9107249,56.8061788 13.9392929,56.7168762 13.9107249,56.628539 L11.2853232,49.3260016 C11.2572313,49.2101496 11.2281871,49.0619556 11.138674,49.0619556 C11.0515415,49.0619556 10.9944054,49.2101496 10.964409,49.3260016 L8.28091894,56.5990933 C8.25235091,56.7168762 8.28091894,56.8061788 8.39757172,56.8061788 L13.7645518,56.8061788 Z M7.81573622,58.2832917 C7.66861088,58.2832917 7.61147482,58.3436313 7.55243423,58.5207883 L5.97785978,62.7503515 C5.68694203,63.4874599 5.53981669,64.197536 5.53981669,64.5513673 C5.53981669,65.0857347 5.80264254,65.4680463 6.70824902,65.4680463 L7.14391144,65.4680463 C7.49529818,65.4680463 7.58100226,65.5279031 7.58100226,65.7055428 C7.58100226,65.9406259 7.40626116,66 7.08677538,66 C6.15212475,66 4.89941674,65.9111801 3.99523866,65.9111801 C3.67384835,65.9111801 2.07022973,66 0.553267468,66 C0.174741102,66 0,65.9406259 0,65.7055428 C0,65.5279031 0.116176646,65.4680463 0.349958338,65.4680463 C0.612784192,65.4680463 1.01940245,65.4410141 1.25366028,65.4086721 C2.59445304,65.2324805 3.14867278,64.2255336 3.73241281,62.7503515 L11.0515415,44.1816903 C11.4014998,43.3234202 11.5767171,43 11.8695393,43 C12.1295084,43 12.3056779,43.2659769 12.5975479,43.9441938 C13.2984169,45.572397 17.9630996,57.6335551 19.8295441,62.1271644 C20.9384597,64.7912775 21.7835972,65.2020694 22.3954291,65.3502634 C22.8329961,65.4410141 23.2710392,65.4680463 23.6209975,65.4680463 C23.8533508,65.4680463 24,65.4965265 24,65.7055428 C24,65.9406259 23.7371741,66 22.658255,66 C21.6088561,66 19.4800619,66 17.1470063,65.9406259 C16.6223069,65.9111801 16.2718724,65.9111801 16.2718724,65.7055428 C16.2718724,65.5279031 16.3875729,65.4680463 16.6808713,65.4410141 C16.8841805,65.3792264 17.0874896,65.1132495 16.9436972,64.7584528 L14.6092132,58.4913426 C14.5520771,58.3436313 14.4644685,58.2832917 14.3197238,58.2832917 L7.81573622,58.2832917 L7.81573622,58.2832917 Z" id="Fill-15"></path>
                        <path d="M30.7174773,57.1208106 C30.7174773,61.0003227 30.7174773,63.0892527 31.3591126,63.6354817 C31.8766086,64.0896829 32.671299,64.3034247 35.0518805,64.3034247 C36.6711744,64.3034247 37.86321,64.2717592 38.6254947,63.4539001 C38.9924283,63.0600611 39.3583648,62.2135051 39.4186894,61.6361055 C39.4505967,61.3634858 39.5099243,61.1819042 39.7547129,61.1819042 C39.9685913,61.1819042 40,61.3323151 40,61.695973 C40,62.0299445 39.785623,64.3034247 39.5428287,65.1811513 C39.3583648,65.84761 39.2053096,66 37.6179229,66 C35.4188141,66 33.8314274,65.9401325 32.4579192,65.9084671 C31.0839124,65.84761 29.9846072,65.8174289 28.733244,65.8174289 C28.396722,65.8174289 27.7251737,65.8174289 26.9923036,65.84761 C26.2893466,65.84761 25.4961518,65.9084671 24.8844296,65.9084671 C24.4885801,65.9084671 24.2756988,65.8174289 24.2756988,65.606161 C24.2756988,65.4542658 24.3973452,65.3632276 24.7632817,65.3632276 C25.2219487,65.3632276 25.5873867,65.3023706 25.8630854,65.2425031 C26.4708192,65.1217786 26.62537,64.4533408 26.7470165,63.5756142 C26.9005702,62.303059 26.9005702,59.9083595 26.9005702,57.1208106 L26.9005702,51.7876565 C26.9005702,47.1808286 26.9005702,46.3322936 26.8392484,45.3635288 C26.7774281,44.3324227 26.5341352,43.8500194 25.5260649,43.6367724 C25.2812763,43.5749258 24.9143427,43.5467237 24.5184931,43.5467237 C24.1834668,43.5467237 24,43.4843824 24,43.2721249 C24,43.060857 24.2153741,43 24.6715483,43 C26.1063783,43 28.0297884,43.0905434 28.8548905,43.0905434 C29.5877606,43.0905434 31.817281,43 33.0068239,43 C33.4345807,43 33.6474621,43.060857 33.6474621,43.2721249 C33.6474621,43.4843824 33.4629982,43.5467237 33.0980588,43.5467237 C32.763531,43.5467237 32.2749509,43.5749258 31.9090144,43.6367724 C31.0839124,43.7861937 30.8391238,44.3042206 30.777802,45.3635288 C30.7174773,46.3322936 30.7174773,47.1808286 30.7174773,51.7876565 L30.7174773,57.1208106" id="Fill-17"></path>
                        <path d="M68.6483682,52.6741971 C68.7401148,52.6741971 68.8308696,52.6160774 68.8308696,52.4630786 L68.8308696,51.8227684 C68.8308696,47.1980303 68.8308696,46.3461048 68.7698705,45.3734693 C68.7103592,44.3377465 68.4663628,43.8534157 67.4640929,43.6393166 C67.2225762,43.5777197 66.7053236,43.549405 66.2808095,43.549405 C65.9440746,43.549405 65.7640529,43.4863178 65.7640529,43.273709 C65.7640529,43.0611002 65.975814,43 66.4018159,43 C68.0403609,43 69.9551376,43.0909052 70.775402,43.0909052 C71.5039197,43.0909052 73.4186965,43 74.6019799,43 C75.0274858,43 75.2397429,43.0611002 75.2397429,43.273709 C75.2397429,43.4863178 75.0577374,43.549405 74.6922387,43.549405 C74.450722,43.549405 74.1774658,43.5777197 73.812959,43.6393166 C72.9921987,43.7898318 72.7491941,44.3099285 72.6891869,45.3734693 C72.6276918,46.3461048 72.6276918,47.1980303 72.6276918,51.8227684 L72.6276918,57.1772316 C72.6276918,59.9759184 72.6276918,62.3801862 72.7804376,63.6881277 C72.8711923,64.5395564 73.0531978,65.2101682 73.9657047,65.3313751 C74.3897229,65.3919786 75.0577374,65.4530788 75.512999,65.4530788 C75.8487421,65.4530788 76,65.5439839 76,65.6969828 C76,65.9090948 75.7564995,66 75.3914967,66 C73.4186965,66 71.5039197,65.9090948 70.6538997,65.9090948 C69.9551376,65.9090948 68.0403609,66 66.8570775,66 C66.4310756,66 66.2188185,65.9090948 66.2188185,65.6969828 C66.2188185,65.5439839 66.3398249,65.4530788 66.7053236,65.4530788 C67.1600893,65.4530788 67.525092,65.3919786 67.7983482,65.3313751 C68.4063555,65.2101682 68.5571175,64.5395564 68.6791157,63.657826 C68.8308696,62.3801862 68.8308696,59.9759184 68.8308696,57.1772316 L68.8308696,54.5002484 C68.8308696,54.3790415 68.7401148,54.3179413 68.6483682,54.3179413 L57.0461403,54.3179413 C56.9553856,54.3179413 56.8641349,54.3492365 56.8641349,54.5002484 L56.8641349,57.1772316 C56.8641349,59.9759184 56.8641349,62.3801862 57.0148969,63.6881277 C57.1061476,64.5395564 57.288649,65.2101682 58.200164,65.3313751 C58.62567,65.3919786 59.2936846,65.4530788 59.749938,65.4530788 C60.0836973,65.4530788 60.2349553,65.5439839 60.2349553,65.6969828 C60.2349553,65.9090948 59.9929426,66 59.6289317,66 C57.6536517,66 55.7408587,65.9090948 54.8908387,65.9090948 C54.1905888,65.9090948 52.2772999,66 51.0622771,66 C50.6685105,66 50.4557575,65.9090948 50.4557575,65.6969828 C50.4557575,65.5439839 50.5767639,65.4530788 50.9412707,65.4530788 C51.3975242,65.4530788 51.7615351,65.3919786 52.0333035,65.3313751 C52.6413108,65.2101682 52.7940565,64.5395564 52.9150628,63.657826 C53.0678086,62.3801862 53.0678086,59.9759184 53.0678086,57.1772316 L53.0678086,51.8227684 C53.0678086,47.1980303 53.0678086,46.3461048 53.0078013,45.3734693 C52.9453144,44.3377465 52.7023099,43.8534157 51.700536,43.6393166 C51.4565396,43.5777197 50.9412707,43.549405 50.5157648,43.549405 C50.1820055,43.549405 50,43.4863178 50,43.273709 C50,43.0611002 50.212257,43 50.6382589,43 C52.2772999,43 54.1905888,43.0909052 55.0113491,43.0909052 C55.7408587,43.0909052 57.6536517,43 58.8374311,43 C59.2639289,43 59.47569,43.0611002 59.47569,43.273709 C59.47569,43.4863178 59.2936846,43.549405 58.9291777,43.549405 C58.687165,43.549405 58.4139089,43.5777197 58.0489061,43.6393166 C57.2291377,43.7898318 56.9851412,44.3099285 56.9241421,45.3734693 C56.8641349,46.3461048 56.8641349,47.1980303 56.8641349,51.8227684 L56.8641349,52.4630786 C56.8641349,52.6160774 56.9553856,52.6741971 57.0461403,52.6741971 L68.6483682,52.6741971" id="Fill-19"></path>
                        <path d="M80.900846,51.6618816 C80.900846,47.1209898 80.900846,46.2850873 80.8417694,45.3301881 C80.7840995,44.3133521 80.5557639,43.8378533 79.6058506,43.6276584 C79.3770462,43.5666971 78.8898991,43.5374356 78.4866782,43.5374356 C78.1730099,43.5374356 78,43.4774496 78,43.2687178 C78,43.059986 78.2006727,43 78.6310876,43 C80.1530119,43 81.9623484,43.0892475 82.8241158,43.0892475 C83.513811,43.0892475 85.3217409,43 86.3555805,43 C86.7864642,43 86.9871369,43.059986 86.9871369,43.2687178 C86.9871369,43.4774496 86.8145959,43.5374356 86.5281215,43.5374356 C86.2111711,43.5374356 86.0386301,43.5666971 85.6944858,43.6276584 C84.9208643,43.7754289 84.6906533,44.2855537 84.6320457,45.3301881 C84.5757823,46.2850873 84.5757823,47.1209898 84.5757823,51.6618816 L84.5757823,55.8438328 C84.5757823,60.1750175 85.4075426,61.9989822 86.8145959,63.1918746 C88.1077158,64.296495 89.4280298,64.4154916 90.4041994,64.4154916 C91.6691876,64.4154916 93.218306,63.9985157 94.3684232,62.8022095 C95.9475487,61.1596658 96.0333503,58.4739509 96.0333503,55.395157 L96.0333503,51.6618816 C96.0333503,47.1209898 96.0333503,46.2850873 95.9756804,45.3301881 C95.9180104,44.3133521 95.6896749,43.8378533 94.7416369,43.6276584 C94.5109571,43.5666971 94.0228723,43.5374356 93.7073285,43.5374356 C93.3903781,43.5374356 93.218306,43.4774496 93.218306,43.2687178 C93.218306,43.059986 93.4203853,43 93.8212618,43 C95.286454,43 97.0962593,43.0892475 97.124391,43.0892475 C97.469473,43.0892475 99.2788095,43 100.397513,43 C100.799327,43 101,43.059986 101,43.2687178 C101,43.4774496 100.827928,43.5374356 100.483784,43.5374356 C100.168709,43.5374356 99.9961676,43.5666971 99.6506167,43.6276584 C98.8755886,43.7754289 98.6449088,44.2855537 98.5891143,45.3301881 C98.5314443,46.2850873 98.5314443,47.1209898 98.5314443,51.6618816 L98.5314443,54.8572337 C98.5314443,58.1759717 98.2159005,61.6975891 95.8031393,63.8507453 C93.7649985,65.6712962 91.6968505,66 89.8307818,66 C88.3083885,66 85.5519519,65.9097771 83.4556722,63.9385297 C81.9909489,62.5642162 80.900846,60.3549755 80.900846,56.0228155 L80.900846,51.6618816" id="Fill-21"></path>
                        <path d="M115.512082,64.197426 C118.382176,64.197426 119.480403,63.4458626 119.930263,62.5421211 C120.182993,62.0605511 120.352092,61.522037 120.436642,61.0979019 C120.493621,60.7979638 120.549222,60.6173137 120.717861,60.6173137 C120.94348,60.6173137 121,60.8274177 121,61.5485455 C121,62.5121764 120.632852,64.4654558 120.436642,65.2170192 C120.295113,65.7589695 120.098903,66 119.592064,66 C114.891745,66 110.163396,65.8483128 104.479728,65.8483128 C104.169099,65.8483128 104,65.7589695 104,65.5488656 C104,65.337289 104.08455,65.1875654 104.423208,64.6461059 C108.391988,58.0322498 112.55606,51.2397072 116.327252,44.8924082 L110.811763,44.8924082 C109.375797,44.8924082 107.659071,44.9827332 106.760271,45.5241927 C105.831144,46.0651612 105.323846,47.177534 105.239756,47.8696988 C105.182777,48.2899067 105.070197,48.4116492 104.902016,48.4116492 C104.704887,48.4116492 104.675938,48.259962 104.675938,47.9011163 C104.675938,47.2089514 105.098227,44.4722003 105.239756,43.5704224 C105.294437,43.1487418 105.408855,43 105.577495,43 C105.831144,43 105.999324,43.1801592 106.702373,43.209613 C109.375797,43.3293919 110.727673,43.2994472 111.879203,43.2994472 L120.464212,43.2994472 C120.74727,43.2994472 120.94348,43.3917359 120.94348,43.5429321 C120.94348,43.7211278 120.83182,43.9017779 120.717861,44.1113909 C116.83455,50.8455168 112.55606,57.7303481 108.588199,64.197426 L115.512082,64.197426" id="Fill-23"></path>
                        <path d="M134.764552,56.8061788 C134.911201,56.8061788 134.939293,56.7168762 134.911201,56.628539 L132.283895,49.3260016 C132.256755,49.2101496 132.226759,49.0619556 132.139626,49.0619556 C132.051541,49.0619556 131.993929,49.2101496 131.964409,49.3260016 L129.281871,56.5990933 C129.252827,56.7168762 129.281871,56.8061788 129.399476,56.8061788 L134.764552,56.8061788 Z M128.815736,58.2832917 C128.669087,58.2832917 128.611475,58.3436313 128.55291,58.5207883 L126.97786,62.7503515 C126.686942,63.4874599 126.538388,64.197536 126.538388,64.5513673 C126.538388,65.0857347 126.802643,65.4680463 127.706344,65.4680463 L128.143911,65.4680463 C128.494346,65.4680463 128.581955,65.5279031 128.581955,65.7055428 C128.581955,65.9406259 128.406261,66 128.086775,66 C127.153077,66 125.898464,65.9111801 124.995239,65.9111801 C124.673848,65.9111801 123.069754,66 121.553267,66 C121.175217,66 121,65.9406259 121,65.7055428 C121,65.5279031 121.116177,65.4680463 121.349958,65.4680463 C121.612784,65.4680463 122.020355,65.4410141 122.25366,65.4086721 C123.593501,65.2324805 124.149149,64.2255336 124.733365,62.7503515 L132.051541,44.1816903 C132.4015,43.3234202 132.576717,43 132.869539,43 C133.132365,43 133.305202,43.2659769 133.598024,43.9441938 C134.298417,45.572397 138.961671,57.6335551 140.83002,62.1271644 C141.93846,64.7912775 142.783597,65.2020694 143.396381,65.3502634 C143.833472,65.4410141 144.272944,65.4680463 144.620998,65.4680463 C144.853351,65.4680463 145,65.4965265 145,65.7055428 C145,65.9406259 144.737174,66 143.658255,66 C142.60838,66 140.480062,66 138.147006,65.9406259 C137.621831,65.9111801 137.271396,65.9111801 137.271396,65.7055428 C137.271396,65.5279031 137.388049,65.4680463 137.680871,65.4410141 C137.88418,65.3792264 138.087966,65.1132495 137.943221,64.7584528 L135.609213,58.4913426 C135.552077,58.3436313 135.464469,58.2832917 135.317819,58.2832917 L128.815736,58.2832917 L128.815736,58.2832917 Z" id="Fill-25"></path>
                        <path d="M147.725067,51.8227684 C147.725067,47.1975335 147.725067,46.3461048 147.661881,45.3734693 C147.599201,44.3377465 147.290856,43.8216237 146.609463,43.6686249 C146.268261,43.577223 145.8664,43.547418 145.494869,43.547418 C145.186018,43.547418 145,43.4863178 145,43.243904 C145,43.0611002 145.248193,43 145.745084,43 C146.918819,43 148.871506,43.0909052 149.766719,43.0909052 C150.542132,43.0909052 152.367942,43 153.545721,43 C153.947076,43 154.194258,43.0611002 154.194258,43.243904 C154.194258,43.4863178 154.008239,43.547418 153.698883,43.547418 C153.390032,43.547418 153.141839,43.577223 152.769802,43.6393166 C151.934236,43.7898318 151.687055,44.3094318 151.62488,45.3734693 C151.562705,46.3461048 151.562705,47.1975335 151.562705,51.8227684 L151.562705,57.1772316 C151.562705,60.1294141 151.562705,62.533185 151.687055,63.8406298 C151.780064,64.6627503 151.994389,65.2101682 152.925997,65.3313751 C153.359197,65.3914818 154.04059,65.452582 154.505131,65.452582 C154.844816,65.452582 155,65.5439839 155,65.6969828 C155,65.9085981 154.751302,66 154.412122,66 C152.367942,66 150.417277,65.9085981 149.582217,65.9085981 C148.871506,65.9085981 146.918819,66 145.680888,66 C145.279027,66 145.06268,65.9085981 145.06268,65.6969828 C145.06268,65.5439839 145.186018,65.452582 145.557044,65.452582 C146.02209,65.452582 146.393621,65.3914818 146.672143,65.3313751 C147.290856,65.2101682 147.475863,64.6920585 147.569378,63.8098313 C147.725067,62.533185 147.725067,60.1294141 147.725067,57.1772316 L147.725067,51.8227684" id="Fill-27"></path>
                        <path d="M164.879762,57.2699976 C164.879762,60.1591905 164.879762,62.4182463 165.030183,63.6824525 C165.121227,64.5544205 165.303315,65.2184728 166.212766,65.3384053 C166.636319,65.39788 167.302326,65.4583378 167.726868,65.4583378 C168.120732,65.4583378 168.243444,65.5487787 168.243444,65.6996773 C168.243444,65.9095591 168.030183,66 167.575458,66 C165.666997,66 163.757546,65.9095591 162.969322,65.9095591 C162.181098,65.9095591 160.271648,66 159.121227,66 C158.695695,66 158.484414,65.9395422 158.484414,65.6996773 C158.484414,65.5487787 158.605146,65.4583378 158.939634,65.4583378 C159.394359,65.4583378 159.757051,65.39788 160.029193,65.3384053 C160.635824,65.2184728 160.787729,64.5544205 160.908461,63.6824525 C161.060861,62.4182463 161.060861,60.1591905 161.060861,57.2699976 L161.060861,51.9718334 C161.060861,47.3952301 161.060861,46.5522621 160.998021,45.5898532 C160.938149,44.5655119 160.696685,44.0862736 159.69619,43.8744257 C159.453241,43.8129848 158.939634,43.7849678 158.513607,43.7849678 C158.211282,43.7849678 158,43.7230355 158,43.5416622 C158,43.3022888 158.241465,43.241831 158.695695,43.241831 C159.484908,43.241831 160.363187,43.2723057 161.15141,43.2723057 C161.938644,43.3022888 162.636319,43.3317804 163.059871,43.3317804 C164.211776,43.3317804 170.364671,43.3317804 171.060861,43.3022888 C171.635824,43.2723057 172.000495,43.2723057 172.304305,43.1803902 C172.485898,43.1238647 172.636319,43 172.788718,43 C172.909451,43 173,43.1238647 173,43.2723057 C173,43.4831706 172.848095,43.842968 172.757051,44.6259697 C172.727363,44.9267839 172.666007,46.7041438 172.60663,47.0649242 C172.575458,47.3057722 172.515586,47.4861625 172.304305,47.4861625 C172.090549,47.4861625 172.031667,47.3362469 172.000495,47.0044665 C172.000495,46.763127 172.000495,46.282414 171.819891,45.8611758 C171.60663,45.4394461 170.969817,44.9872417 169.818902,44.9582416 L165.15141,44.8682923 C164.969322,44.8682923 164.879762,44.9582416 164.879762,45.289039 L164.879762,52.8143098 C164.879762,52.9951916 164.907966,53.0851409 165.090054,53.0851409 L168.968827,53.0576155 C169.484908,53.0576155 169.91044,53.0576155 170.333003,53.0256662 C170.908461,52.9951916 171.333498,52.8752591 171.635824,52.4844955 C171.788224,52.3036138 171.849085,52.1812237 172.031667,52.1812237 C172.151905,52.1812237 172.213756,52.2726476 172.213756,52.4525463 C172.213756,52.6334281 172.061356,53.3864467 171.969817,54.3228047 C171.908956,54.921484 171.849085,56.3066057 171.849085,56.5184536 C171.849085,56.7887932 171.849085,57.0900989 171.545275,57.0900989 C171.363187,57.0900989 171.30381,56.8792341 171.30381,56.6668946 C171.30381,56.4575043 171.241959,56.0977069 171.121722,55.7344688 C170.969817,55.3142137 170.514597,54.7720599 169.576447,54.6506529 C168.818407,54.560212 165.606136,54.560212 165.090054,54.560212 C164.939634,54.560212 164.879762,54.6206698 164.879762,54.8335007 L164.879762,57.2699976" id="Fill-29"></path>
                        <path d="M185.764552,56.8061788 C185.911201,56.8061788 185.940245,56.7168762 185.911201,56.628539 L183.285799,49.3260016 C183.256755,49.2101496 183.226759,49.0619556 183.139626,49.0619556 C183.051541,49.0619556 182.994882,49.2101496 182.964409,49.3260016 L180.281871,56.5990933 C180.253303,56.7168762 180.281871,56.8061788 180.398048,56.8061788 L185.764552,56.8061788 Z M179.815736,58.2832917 C179.669087,58.2832917 179.611951,58.3436313 179.553387,58.5207883 L177.97786,62.7503515 C177.686942,63.4874599 177.540293,64.197536 177.540293,64.5513673 C177.540293,65.0857347 177.803119,65.4680463 178.706344,65.4680463 L179.144388,65.4680463 C179.494822,65.4680463 179.581955,65.5279031 179.581955,65.7055428 C179.581955,65.9406259 179.406261,66 179.087252,66 C178.153077,66 176.898941,65.9111801 175.995715,65.9111801 C175.674324,65.9111801 174.07023,66 172.55422,66 C172.175217,66 172,65.9406259 172,65.7055428 C172,65.5279031 172.116177,65.4680463 172.350911,65.4680463 C172.612784,65.4680463 173.020355,65.4410141 173.25366,65.4086721 C174.595405,65.2324805 175.148673,64.2255336 175.733365,62.7503515 L183.051541,44.1816903 C183.402452,43.3234202 183.577193,43 183.870015,43 C184.130461,43 184.305202,43.2659769 184.5985,43.9441938 C185.298417,45.572397 189.9631,57.6335551 191.83002,62.1271644 C192.938936,64.7912775 193.783597,65.2020694 194.396381,65.3502634 C194.833948,65.4410141 195.271039,65.4680463 195.621474,65.4680463 C195.853351,65.4680463 196,65.4965265 196,65.7055428 C196,65.9406259 195.737174,66 194.659207,66 C193.60838,66 191.479586,66 189.147006,65.9406259 C188.622307,65.9111801 188.272349,65.9111801 188.272349,65.7055428 C188.272349,65.5279031 188.388525,65.4680463 188.680871,65.4410141 C188.885133,65.3792264 189.088442,65.1132495 188.943697,64.7584528 L186.609213,58.4913426 C186.552553,58.3436313 186.464945,58.2832917 186.318295,58.2832917 L179.815736,58.2832917 L179.815736,58.2832917 Z" id="Fill-31"></path>
                        <path d="M59.03992,78.3512172 C59.2093963,77.7433231 59.4484265,77.1737178 59.7570105,76.6499645 C60.0651047,76.1243205 60.4158129,75.6648546 60.8086453,75.2696762 C61.2014776,74.8749705 61.6266378,74.5667691 62.0836361,74.3384543 C62.5401445,74.112503 62.9976326,74 63.454141,74 C63.7299073,74 63.9640393,74.0406523 64.1550676,74.1177027 C64.3465856,74.1975892 64.5057757,74.2973292 64.6331279,74.4183408 C64.7609698,74.5388797 64.8540349,74.6693453 64.912323,74.8130466 C64.9701212,74.9539116 65,75.0876861 65,75.2134247 C65,75.3930513 64.9485693,75.5726779 64.8486469,75.7494682 C64.747255,75.9290948 64.5586759,76.0189081 64.2829095,76.0189081 C64.0487775,76.0189081 63.8812605,75.973056 63.7803584,75.8856062 C63.6794563,75.795793 63.6294951,75.6932167 63.6294951,75.5778776 C63.6294951,75.4724651 63.651047,75.3802883 63.6931711,75.3008745 C63.7352953,75.2209879 63.7803584,75.14961 63.8283603,75.0801229 C63.8763623,75.0129993 63.9184865,74.9463484 63.9557125,74.8825337 C63.9929385,74.8206098 64.0115515,74.7463957 64.0115515,74.6617821 C64.0115515,74.484519 63.9503245,74.3663437 63.8283603,74.3077287 C63.7059064,74.2510045 63.565819,74.2207516 63.406139,74.2207516 C62.9280787,74.2207516 62.5083065,74.3691799 62.1473121,74.6617821 C61.785828,74.9567478 61.4782236,75.3084377 61.2230295,75.7187426 C60.9683252,76.1295202 60.7606433,76.547861 60.6014531,76.9709289 C60.4422629,77.3968329 60.3256868,77.7485228 60.2512347,78.0203262 L59.9162007,79.2186244 L61.8764439,79.2186244 L61.8132577,79.439376 L59.8530144,79.439376 L58.4345075,84.7832664 C58.2537655,85.4559206 58.0250214,86.1073032 57.7492551,86.7388324 C57.4725091,87.3670527 57.1570676,87.9243678 56.8009715,88.4088868 C56.4453651,88.891515 56.0579207,89.2786575 55.6376587,89.5684235 C55.2183763,89.8562987 54.774603,90 54.3068289,90 C54.1691906,90 54.0232254,89.9844009 53.8689334,89.9536753 C53.7146414,89.922477 53.5735744,89.8662255 53.4467121,89.7891751 C53.31936,89.7097613 53.2130699,89.6048216 53.127842,89.4738832 C53.042614,89.3405814 53,89.1713543 53,88.9605294 C53,88.7605767 53.061227,88.5885134 53.183681,88.4400851 C53.3056451,88.2935476 53.4947141,88.2193335 53.7494183,88.2193335 C53.8875464,88.2193335 53.9992245,88.2448594 54.0844524,88.2987473 C54.1691906,88.3497991 54.2113147,88.4604113 54.2113147,88.6296384 C54.2113147,88.7449775 54.1853545,88.8631529 54.1319646,88.9836918 C54.0790645,89.1042307 54.0521246,89.2375325 54.0521246,89.3869062 C54.0521246,89.5225715 54.0976775,89.6227842 54.1873138,89.6865989 C54.2774399,89.7480501 54.3920568,89.7792484 54.5301849,89.7792484 C54.9764072,89.7792484 55.4045063,89.479083 55.8130128,88.8735524 C56.2220091,88.2703853 56.6119025,87.2956748 56.9841626,85.9484755 L58.7367239,79.439376 L57.2236826,79.439376 L57.2873587,79.2186244 L58.8008898,79.2186244 L59.03992,78.3512172 Z" id="Fill-33"></path>
                        <path d="M68.9887106,79 L67.2077666,84.2376224 C67.124932,84.4627992 67.0630441,84.6589363 67.0216268,84.8346028 C66.9802095,85.0074129 66.9597388,85.1392818 66.9597388,85.2221164 C66.9597388,85.3720756 66.9982998,85.5039445 67.0758977,85.6201034 C67.1534956,85.7362622 67.2853645,85.7957699 67.4710283,85.7957699 C67.7495239,85.7957699 68.0513466,85.687228 68.3769723,85.4701442 C68.7016458,85.2530604 69.0196545,84.9740887 69.3290941,84.6356094 C69.6394859,84.29713 69.9227421,83.9196137 70.1812432,83.5011561 C70.4387922,83.0826986 70.640642,82.6666213 70.7853645,82.2529244 L71.8845892,79 L72.96858,79 L71.140982,84.3823449 C71.0895675,84.5399211 71.0381529,84.7027339 70.9867383,84.8655468 C70.9343716,85.0307399 70.9096164,85.1859358 70.9096164,85.3335147 C70.9096164,85.4625272 70.945321,85.5710691 71.0176823,85.6586643 C71.0895675,85.7495919 71.1981094,85.7957699 71.3428319,85.7957699 C71.5184984,85.7957699 71.6860718,85.7362622 71.8460283,85.6201034 C72.0059848,85.5039445 72.1511834,85.3696953 72.2801959,85.2144995 C72.4087323,85.0616839 72.5196545,84.9069641 72.6129625,84.7465316 C72.7057943,84.5889554 72.7729189,84.4627992 72.8143362,84.3666349 L73,84.4447089 C72.9585827,84.5294478 72.8938384,84.6589363 72.8067193,84.8346028 C72.718648,85.0074129 72.5972524,85.1830794 72.4420566,85.3587459 C72.2878128,85.5325082 72.0964363,85.6848477 71.8693553,85.8114799 C71.6417982,85.937636 71.3737758,86 71.0643362,86 C70.7234766,86 70.4521219,85.9304951 70.2512242,85.7881529 C70.0498504,85.6434304 69.9489255,85.4030196 69.9489255,85.0645403 C69.9489255,84.8836371 69.9693961,84.7132073 70.0108134,84.5475381 C70.0522307,84.3852013 70.1141186,84.1962051 70.1969532,83.984358 L70.1660092,83.953414 C70.0208107,84.1447905 69.8480005,84.359018 69.6471028,84.5970484 C69.445253,84.8346028 69.2281692,85.0569233 68.9968036,85.2635337 C68.7640098,85.4701442 68.5164581,85.6434304 68.2531964,85.7881529 C67.9894587,85.9304951 67.719056,86 67.4396083,86 C66.9959195,86 66.6445865,85.8938384 66.3865615,85.6848477 C66.1285365,85.4730005 66,85.1649891 66,84.7622416 C66,84.6041893 66.0352285,84.4161453 66.1075898,84.1990615 C66.179951,83.9819777 66.241839,83.7882209 66.2937296,83.6201714 L67.8118879,79.2223205 L66.4332155,79.2223205 L66.4951034,79 L68.9887106,79 Z" id="Fill-35"></path>
                        <path d="M79.8563021,80.1916741 C79.9352645,79.9007513 80.014227,79.6132056 80.0936458,79.3222827 L78.8019481,79.3222827 L78.8608276,79.0969743 L81.1484563,79.0969743 C81.0982489,79.3222827 81.0265894,79.6078985 80.9325647,79.950927 C80.8385401,80.2939555 80.7372126,80.6263698 80.6276693,80.9481701 L80.6577937,80.9800124 C80.7568391,80.8174237 80.8805317,80.6263698 81.029328,80.4015439 C81.1781242,80.1762354 81.3456342,79.9586464 81.5341399,79.7492591 C81.7217327,79.5393893 81.929865,79.3613619 82.1576237,79.2171066 C82.3853824,79.0738163 82.6277469,79 82.88563,79 C83.2516871,79 83.5314789,79.1128954 83.7240925,79.3377214 C83.9171625,79.5630298 84.008905,79.803777 83.99932,80.06334 C83.99932,80.2336481 83.9719342,80.3750086 83.9171625,80.4874216 C83.8628473,80.600317 83.7934699,80.6866772 83.7090303,80.7465022 C83.6250471,80.8048797 83.5387818,80.8463712 83.4497779,80.867117 C83.360774,80.8883452 83.2763344,80.8989593 83.1969155,80.8989593 C83.0586171,80.8989593 82.944966,80.8622924 82.8559621,80.7860638 C82.7665017,80.7103177 82.7217715,80.5979047 82.7217715,80.4483424 C82.7217715,80.3306224 82.7445931,80.2418499 82.7888668,80.1834723 C82.833597,80.1236474 82.8801529,80.068647 82.9299038,80.0136467 C82.9791982,79.9610587 83.0262106,79.9007513 83.0704843,79.838514 C83.1152145,79.7728996 83.1375796,79.6860569 83.1375796,79.5784685 C83.1375796,79.4718451 83.0978701,79.3878972 83.0189077,79.3222827 C82.9394888,79.2571507 82.8408999,79.2253084 82.7217715,79.2253084 C82.5337223,79.2253084 82.3155486,79.3300021 82.0686198,79.5393893 C81.8207781,79.7492591 81.5761315,80.0165415 81.3333105,80.3431663 C81.0904896,80.6707561 80.8609052,81.0427321 80.6427315,81.4619891 C80.4254707,81.8807637 80.2470064,82.2995382 80.1082516,82.7159005 L79.0392918,86 L78,86 L79.6034397,81.0427321 C79.6929,80.7648356 79.7768832,80.4797023 79.8563021,80.1916741" id="Fill-37"></path>
                        <path d="M88.7684231,79.3137202 L88.8263332,79.0943979 L91.1164567,79.0943979 L90.5222095,81.0218048 L90.5511646,81.0218048 C91.4879725,79.6729956 92.3717704,79 93.2030037,79 C93.6083747,79 93.9299987,79.1174103 94.1665394,79.3517612 C94.4035255,79.5889299 94.5220186,79.8768199 94.5220186,80.2210668 C94.5220186,80.4 94.4952908,80.5756458 94.4422808,80.7461255 C94.3888253,80.919423 94.3237877,81.1260651 94.2462772,81.365582 L93.3045692,84.2613888 C93.246659,84.4398524 93.1932035,84.6159678 93.1450935,84.7864475 C93.0965381,84.9597451 93.0724831,85.1306944 93.0724831,85.2964777 C93.0724831,85.4214022 93.0965381,85.5359946 93.1450935,85.6407246 C93.1932035,85.7449849 93.294769,85.7989936 93.44979,85.7989936 C93.623075,85.7989936 93.7825506,85.7449849 93.9277714,85.6407246 C94.0729922,85.5359946 94.2052946,85.4110701 94.326015,85.265951 C94.4471809,85.1180141 94.5509737,84.9649111 94.6378389,84.8019457 C94.7251495,84.6413284 94.7919689,84.5037236 94.8405244,84.3891312 L95,84.4656827 C94.95189,84.569943 94.8841797,84.709896 94.796869,84.8808454 C94.7104493,85.0546125 94.5968563,85.222744 94.4565356,85.3904059 C94.3166603,85.5566588 94.1451572,85.7017779 93.9420262,85.8215364 C93.7393407,85.9412949 93.4979,86 93.2172585,86 C92.9081074,86 92.6475118,85.9286146 92.4345806,85.7811473 C92.2225404,85.6355585 92.1160748,85.395572 92.1160748,85.0616572 C92.1160748,84.9268702 92.1330024,84.7840993 92.1668576,84.6389802 C92.2007127,84.4933915 92.2416953,84.3351224 92.2902507,84.1698088 L93.5077001,80.424891 C93.5843197,80.1750419 93.623075,79.9665213 93.623075,79.7979202 C93.623075,79.6626635 93.5820924,79.5330426 93.5005727,79.4076484 C93.4181621,79.2831936 93.270714,79.2193224 93.0577829,79.2193224 C92.8457426,79.2193224 92.5989563,79.3057363 92.3192058,79.4795035 C92.0385643,79.6499832 91.7583683,79.8848038 91.4781723,80.1830258 C91.1979763,80.4807783 90.9351534,80.8301912 90.6883671,81.2331432 C90.4424717,81.6332774 90.241568,82.0691043 90.0869925,82.540624 L89.0000636,85.8140221 L88,85.8140221 L90.0869925,79.3137202 L88.7684231,79.3137202 Z" id="Fill-39"></path>
                        <path d="M101.83755,74.2241644 C101.967599,74.0755498 102.128273,74 102.320905,74 C102.513094,74 102.674656,74.0755498 102.804705,74.2241644 C102.934754,74.3722818 103,74.5586713 103,74.7793563 C103,75.0005385 102.934754,75.1869279 102.804705,75.3350454 C102.674656,75.4836599 102.513094,75.5597067 102.320905,75.5597067 C102.128273,75.5597067 101.967599,75.4836599 101.83755,75.3350454 C101.707501,75.1869279 101.642255,75.0005385 101.642255,74.7793563 C101.642255,74.5586713 101.707501,74.3722818 101.83755,74.2241644 L101.83755,74.2241644 Z M99.4620506,78.9236632 L99.5197514,78.6915462 L101.815801,78.6915462 L100.111851,84.3110632 C100.063471,84.475583 100.015535,84.6460672 99.9675988,84.8160543 C99.9192188,84.9880297 99.8952508,85.1500642 99.8952508,85.3041461 C99.8952508,85.4388436 99.9289836,85.5521683 99.9964492,85.6441204 C100.063471,85.7385578 100.164225,85.7872675 100.299157,85.7872675 C100.453174,85.7872675 100.605415,85.7251377 100.754549,85.6038603 C100.90324,85.4820859 101.040834,85.3419211 101.166001,85.1798865 C101.290723,85.0208342 101.397248,84.8587997 101.483356,84.6917947 C101.569907,84.527275 101.632934,84.3950628 101.671105,84.295158 L101.844652,84.3761753 C101.806036,84.4651452 101.745672,84.5998426 101.664004,84.7832498 C101.581891,84.9636748 101.468708,85.147579 101.3249,85.3309862 C101.180648,85.5119082 101.002219,85.6709605 100.790945,85.8031728 C100.578784,85.935385 100.328007,86 100.039503,86 C99.7217044,86 99.4691522,85.9274324 99.2814026,85.7788179 C99.0932091,85.6277182 99,85.3767137 99,85.0238164 C99,84.8349418 99.0288504,84.6296649 99.0869951,84.4030154 C99.1442521,84.1758688 99.201953,83.9681067 99.2596538,83.7797291 L100.747448,78.9236632 L99.4620506,78.9236632 Z" id="Fill-41"></path>
                        <path d="M110.799292,77 L110.20728,78.6365457 L112,78.6365457 L111.934277,78.8699087 L110.141557,78.8699087 L108.266431,84.1811707 C108.21183,84.3469286 108.156724,84.5211996 108.102123,84.6974738 C108.047017,84.8767527 108.019211,85.0540285 108.019211,85.2328066 C108.019211,85.3985644 108.060667,85.5322724 108.143074,85.6324282 C108.22548,85.7330848 108.358948,85.7851658 108.545501,85.7851658 C108.743175,85.7851658 108.929727,85.7225684 109.104651,85.6003784 C109.280586,85.4781883 109.439838,85.3364678 109.582406,85.1732139 C109.724469,85.0129646 109.845298,84.8502114 109.943883,84.6814489 C110.042467,84.5156911 110.114257,84.3824839 110.157735,84.2818273 L110.35541,84.3634543 C110.311426,84.4530937 110.240142,84.5888048 110.141557,84.7735923 C110.042467,84.9558758 109.911021,85.1406633 109.746208,85.3254507 C109.582406,85.5077343 109.376643,85.6684843 109.129424,85.8011907 C108.883215,85.934398 108.589484,86 108.250253,86 C107.833165,86 107.520728,85.8993434 107.312437,85.6925217 C107.10364,85.4857 107,85.2383152 107,84.9478633 C107,84.7280214 107.04095,84.4721233 107.122851,84.1891832 C107.205258,83.9037391 107.290192,83.645838 107.37816,83.4119742 L108.990394,78.8699087 L107.510111,78.8699087 L107.575834,78.6365457 L109.056117,78.6365457 L109.648129,77 L110.799292,77 Z" id="Fill-43"></path>
                        <path d="M117.988711,79 L116.207767,84.2376224 C116.124932,84.4627992 116.063044,84.6589363 116.021627,84.8346028 C115.980209,85.0074129 115.959739,85.1392818 115.959739,85.2221164 C115.959739,85.3720756 115.9983,85.5039445 116.075898,85.6201034 C116.153496,85.7362622 116.285365,85.7957699 116.471028,85.7957699 C116.749524,85.7957699 117.051347,85.687228 117.376972,85.4701442 C117.701646,85.2530604 118.019655,84.9740887 118.329094,84.6356094 C118.639486,84.29713 118.922742,83.9196137 119.181243,83.5011561 C119.438792,83.0826986 119.640642,82.6666213 119.785365,82.2529244 L120.884589,79 L121.96858,79 L120.140982,84.3823449 C120.089567,84.5399211 120.038153,84.7027339 119.986738,84.8655468 C119.934372,85.0307399 119.909616,85.1859358 119.909616,85.3335147 C119.909616,85.4625272 119.945321,85.5710691 120.017682,85.6586643 C120.089567,85.7495919 120.198109,85.7957699 120.342832,85.7957699 C120.518498,85.7957699 120.686072,85.7362622 120.846028,85.6201034 C121.005985,85.5039445 121.151183,85.3696953 121.280196,85.2144995 C121.408732,85.0616839 121.519655,84.9069641 121.612962,84.7465316 C121.705794,84.5889554 121.772919,84.4627992 121.814336,84.3666349 L122,84.4447089 C121.958583,84.5294478 121.893838,84.6589363 121.806719,84.8346028 C121.718648,85.0074129 121.597252,85.1830794 121.442057,85.3587459 C121.287813,85.5325082 121.096436,85.6848477 120.869355,85.8114799 C120.641798,85.937636 120.373776,86 120.064336,86 C119.723477,86 119.452122,85.9304951 119.251224,85.7881529 C119.04985,85.6434304 118.948925,85.4030196 118.948925,85.0645403 C118.948925,84.8836371 118.969396,84.7132073 119.010813,84.5475381 C119.052231,84.3852013 119.114119,84.1962051 119.196953,83.984358 L119.166009,83.953414 C119.020811,84.1447905 118.848001,84.359018 118.647103,84.5970484 C118.445253,84.8346028 118.228169,85.0569233 117.996804,85.2635337 C117.76401,85.4701442 117.516458,85.6434304 117.253196,85.7881529 C116.989459,85.9304951 116.719056,86 116.439608,86 C115.995919,86 115.644587,85.8938384 115.386561,85.6848477 C115.128536,85.4730005 115,85.1649891 115,84.7622416 C115,84.6041893 115.035229,84.4161453 115.10759,84.1990615 C115.179951,83.9819777 115.241839,83.7882209 115.29373,83.6201714 L116.811888,79.2223205 L115.433215,79.2223205 L115.495103,79 L117.988711,79 Z" id="Fill-45"></path>
                        <path d="M128.856302,80.1916741 C128.935265,79.9007513 129.014227,79.6132056 129.093646,79.3222827 L127.801948,79.3222827 L127.860828,79.0969743 L130.148456,79.0969743 C130.098249,79.3222827 130.026589,79.6078985 129.932565,79.950927 C129.83854,80.2939555 129.737213,80.6263698 129.627669,80.9481701 L129.657794,80.9800124 C129.756839,80.8174237 129.880532,80.6263698 130.029328,80.4015439 C130.178124,80.1762354 130.345634,79.9586464 130.53414,79.7492591 C130.721733,79.5393893 130.929865,79.3613619 131.157624,79.2171066 C131.385382,79.0738163 131.627747,79 131.88563,79 C132.251687,79 132.531479,79.1128954 132.724093,79.3377214 C132.917163,79.5630298 133.008905,79.803777 132.99932,80.06334 C132.99932,80.2336481 132.971934,80.3750086 132.917163,80.4874216 C132.862847,80.600317 132.79347,80.6866772 132.70903,80.7465022 C132.625047,80.8048797 132.538782,80.8463712 132.449778,80.867117 C132.360774,80.8883452 132.276334,80.8989593 132.196915,80.8989593 C132.058617,80.8989593 131.944966,80.8622924 131.855962,80.7860638 C131.766502,80.7103177 131.721772,80.5979047 131.721772,80.4483424 C131.721772,80.3306224 131.744593,80.2418499 131.788867,80.1834723 C131.833597,80.1236474 131.880153,80.068647 131.929904,80.0136467 C131.979198,79.9610587 132.026211,79.9007513 132.070484,79.838514 C132.115214,79.7728996 132.13758,79.6860569 132.13758,79.5784685 C132.13758,79.4718451 132.09787,79.3878972 132.018908,79.3222827 C131.939489,79.2571507 131.8409,79.2253084 131.721772,79.2253084 C131.533722,79.2253084 131.315549,79.3300021 131.06862,79.5393893 C130.820778,79.7492591 130.576131,80.0165415 130.333311,80.3431663 C130.09049,80.6707561 129.860905,81.0427321 129.642731,81.4619891 C129.425471,81.8807637 129.247006,82.2995382 129.108252,82.7159005 L128.039292,86 L127,86 L128.60344,81.0427321 C128.6929,80.7648356 128.776883,80.4797023 128.856302,80.1916741" id="Fill-47"></path>
                        <path d="M140.867472,79.4318647 C140.745138,79.2885263 140.540464,79.2159324 140.255332,79.2159324 C139.938676,79.2159324 139.635194,79.3088711 139.344887,79.4947487 C139.053639,79.6778519 138.790621,79.9085805 138.556305,80.1795363 C138.321048,80.4532664 138.116844,80.744567 137.944166,81.0585243 C137.770075,81.3720193 137.63739,81.6628575 137.54564,81.9287271 C137.780427,81.9717286 138.041092,81.9916111 138.326694,81.9916111 C138.694166,81.9916111 139.040935,81.9365876 139.367472,81.8209921 C139.694009,81.7081709 139.981964,81.5602087 140.232277,81.3743312 C140.482591,81.191228 140.681148,80.9752956 140.82936,80.7269965 C140.977102,80.4810093 141.051443,80.2248497 141.051443,79.9566682 C141.051443,79.7504459 140.990276,79.5770526 140.867472,79.4318647 M140.806305,84.6974701 C140.683501,84.8884338 140.515527,85.0789352 140.300972,85.2694366 C140.086888,85.457626 139.824341,85.6282449 139.512861,85.7766695 C139.20091,85.927406 138.82638,86 138.38739,86 C137.948871,86 137.578576,85.9297179 137.277917,85.7840676 C136.976788,85.6411916 136.73212,85.4553141 136.543444,85.2292093 C136.354297,85.0035669 136.216437,84.7552679 136.130332,84.4815378 C136.043287,84.2105819 136,83.9447123 136,83.6885527 C136,83.1739217 136.124216,82.6417201 136.374529,82.0924103 C136.624843,81.5426382 136.95138,81.0381795 137.354611,80.5813462 C137.757842,80.1245128 138.214241,79.745822 138.724749,79.4466609 C139.234787,79.1511989 139.755176,79 140.285916,79 C140.490119,79 140.693852,79.0226567 140.898055,79.0707444 C141.102729,79.1155955 141.285759,79.1858775 141.449028,79.2788163 C141.612767,79.3717551 141.744981,79.4896625 141.847083,79.6330009 C141.949184,79.7758769 142,79.951582 142,80.1568796 C142,80.433384 141.926129,80.6793712 141.778858,80.8897549 C141.630646,81.1006011 141.439147,81.2790805 141.20389,81.4293546 C140.969573,81.5777792 140.711731,81.7030847 140.431305,81.8061959 C140.150408,81.9088447 139.87798,81.9892992 139.61261,82.0470969 C139.346769,82.1021204 139.104454,82.1446595 138.885194,82.1700905 C138.665464,82.1955215 138.505019,82.2075434 138.402917,82.2075434 C138.229297,82.2075434 138.060853,82.2024572 137.898055,82.1927472 C137.734316,82.1825748 137.59175,82.1673162 137.469417,82.1446595 C137.356493,82.4761873 137.262861,82.802629 137.186167,83.1262963 C137.109473,83.4499637 137.071361,83.7916639 137.071361,84.1500099 C137.071361,84.7048682 137.214398,85.1191624 137.500471,85.3928925 C137.785602,85.6638483 138.147898,85.8016382 138.586888,85.8016382 C138.913425,85.8016382 139.20091,85.7364423 139.451223,85.6083625 C139.701537,85.4802827 139.920797,85.3272343 140.109944,85.1543035 C140.29862,84.9785983 140.456242,84.8001189 140.583752,84.6221019 C140.711731,84.4413105 140.816656,84.3007464 140.898055,84.1980976 L141.082026,84.3058326 C141.020859,84.3761147 140.928639,84.5088183 140.806305,84.6974701" id="Fill-49"></path>
                    </g>
                </g>
            </g>
        </g>
    </g>
</svg>