<svg width="78" height="40" viewBox="0 0 78 40" xmlns="http://www.w3.org/2000/svg"><g id="Page-1" stroke="none" stroke-width="1" fill="none" fill-rule="evenodd"><path d="M78 .858h-9.326L63.587 15.12 58.5.858h-9.326L59.4 24.987 52.709 40h9.314L78 .858zM8.478 5.63V.858H0v25.737h8.478v-9.49c0-4.183 2.226-6.971 4.663-7.668 1.537-.429 3.074-.483 4.663 0V0c-4.769.322-7.577 1.93-9.326 5.63zm27.237 14.316c-1.007 0-2.014-.16-2.65-.536l15.05-9.115C46.153 1.769 39.688 0 36.032 0c-8.85 0-14.201 6.113-14.201 13.727 0 7.613 5.351 13.726 14.2 13.726 4.08 0 7.578-1.501 10.386-4.236l-4.345-5.737c-1.536 1.448-3.815 2.466-6.358 2.466zm.318-12.44c1.377 0 2.331.698 2.755 1.395l-8.796 5.308c-.53-4.021 2.437-6.702 6.04-6.702z" id="Rey-Logo" fill="#000" fill-rule="nonzero"/></g></svg>