<svg xmlns="http://www.w3.org/2000/svg" viewBox="0 0 512 512"><symbol id="reycore-icon-heart" xmlns="http://www.w3.org/2000/svg" viewBox="0 0 24 24"><path fill="none" stroke="currentColor" stroke-linecap="round" stroke-linejoin="round" stroke-width="2" d="M20.84 4.61a5.5 5.5 0 00-7.78 0L12 5.67l-1.06-1.06a5.5 5.5 0 00-7.78 7.78l1.06 1.06L12 21.23l7.78-7.78 1.06-1.06a5.5 5.5 0 000-7.78z"/></symbol><symbol id="reycore-icon-heart-filled" xmlns="http://www.w3.org/2000/svg" viewBox="0 0 24 24"><path fill="currentColor" stroke-linecap="round" stroke-linejoin="round" stroke-width="2" d="M20.84 4.61a5.5 5.5 0 00-7.78 0L12 5.67l-1.06-1.06a5.5 5.5 0 00-7.78 7.78l1.06 1.06L12 21.23l7.78-7.78 1.06-1.06a5.5 5.5 0 000-7.78z"/></symbol><symbol id="reycore-icon-downloaded" viewBox="0 0 16 16" xmlns="http://www.w3.org/2000/svg" xmlns:xlink="http://www.w3.org/1999/xlink"><path d="M8 12c-.3 0-.5-.1-.7-.3L1.6 6 3 4.6l4 4V0h2v8.6l4-4L14.4 6l-5.7 5.7c-.2.2-.4.3-.7.3zm6 2v-3h2v4c0 .6-.4 1-1 1H1c-.6 0-1-.4-1-1v-4h2v3h12z" fill="currentColor"/></symbol><symbol id="reycore-icon-favorites" viewBox="0 0 22 31" xmlns="http://www.w3.org/2000/svg" xmlns:xlink="http://www.w3.org/1999/xlink"><path d="M11 24.166l-11 6.6V0h22v30.766l-11-6.6zm9 3.068V2H2v25.234l9-5.4 9 5.4z" fill="currentColor"/></symbol><symbol id="reycore-icon-grid" viewBox="0 0 33 33" xmlns="http://www.w3.org/2000/svg" xmlns:xlink="http://www.w3.org/1999/xlink"><path d="M3 0h8.84a3 3 0 013 3v8.844a3 3 0 01-3 3H3a3 3 0 01-3-3V3a3 3 0 013-3zm18.16 0H30a3 3 0 013 3v8.844a3 3 0 01-3 3h-8.84a3 3 0 01-3-3V3a3 3 0 013-3zM3 18.156h8.84a3 3 0 013 3V30a3 3 0 01-3 3H3a3 3 0 01-3-3v-8.844a3 3 0 013-3zm18.16 0H30a3 3 0 013 3V30a3 3 0 01-3 3h-8.84a3 3 0 01-3-3v-8.844a3 3 0 013-3z" fill="currentColor" fill-rule="evenodd"/></symbol><symbol id="reycore-icon-logo" viewBox="0 0 78 40" xmlns="http://www.w3.org/2000/svg" xmlns:xlink="http://www.w3.org/1999/xlink"><path d="M78 .858h-9.326L63.587 15.12 58.5.858h-9.326L59.4 24.987 52.709 40h9.314L78 .858zM8.478 5.63V.858H0v25.737h8.478v-9.49c0-4.183 2.226-6.971 4.663-7.668 1.537-.429 3.074-.483 4.663 0V0c-4.769.322-7.577 1.93-9.326 5.63zm27.237 14.316c-1.007 0-2.014-.16-2.65-.536l15.05-9.115C46.153 1.769 39.688 0 36.032 0c-8.85 0-14.201 6.113-14.201 13.727 0 7.613 5.351 13.726 14.2 13.726 4.08 0 7.578-1.501 10.386-4.236l-4.345-5.737c-1.536 1.448-3.815 2.466-6.358 2.466zm.318-12.44c1.377 0 2.331.698 2.755 1.395l-8.796 5.308c-.53-4.021 2.437-6.702 6.04-6.702z" fill="currentColor"/></symbol><symbol id="reycore-icon-arrow" viewBox="0 0 22 13" xmlns="http://www.w3.org/2000/svg" xmlns:xlink="http://www.w3.org/1999/xlink"><path fill="currentColor" d="M-.01 2.44l11 10.633L21.98 2.44 19.5.008l-8.51 8.235L2.47.008z" fill-rule="evenodd"/></symbol><symbol id="reycore-icon-search" xmlns="http://www.w3.org/2000/svg" viewBox="0 0 30 30"><path d="M29.784 26.394l-4.681-4.563c-.047-.046-.108-.067-.16-.104 4.558-5.31 3.849-12.771-1.267-17.758C21.055 1.414 17.571.006 13.865.006c-3.707 0-7.192 1.408-9.812 3.963a13.303 13.303 0 000 19.132c2.62 2.556 6.105 3.964 9.812 3.964 3.29 0 5.966-.742 8.457-2.78.039.051.059.109.106.156l4.298 4.189c.249.243.575.365.901.365.326 0 1.472-.122 1.72-.365.498-.485.935-1.751.437-2.236zm-15.919-2.56c-6.327 0-10.277-4.238-10.339-10.185C3.46 7.397 7.666 3.397 13.865 3.397c6.222 0 10.654 4.013 10.612 10.212-.041 6-4.308 10.225-10.612 10.225z"/></symbol><symbol id="reycore-icon-external-link" xmlns="http://www.w3.org/2000/svg" xmlns:xlink="http://www.w3.org/1999/xlink" viewBox="0 0 917 917"><g fill="currentColor"><path d="M826.404 497.164v224.743c0 15.967.967 32.389-.686 48.307-.101.913-.213 1.825-.335 2.736l1.6-11.558a117.701 117.701 0 01-7.765 28.566l4.439-10.618a118.31 118.31 0 01-14.517 25.035l6.977-9.154a119.108 119.108 0 01-20.211 20.445c3.069-2.39 6.14-4.776 9.209-7.164a118.107 118.107 0 01-26.071 15.319l11.139-4.65a117.735 117.735 0 01-28.567 7.767l11.972-1.544c-10.507 1.35-21.137 1.02-31.707 1.02H183.873c-13.372 0-27.101.688-40.388-1.02l11.558 1.6a117.709 117.709 0 01-28.567-7.765l10.618 4.439a118.303 118.303 0 01-25.034-14.517l9.154 6.976a119.107 119.107 0 01-20.445-20.211l7.164 9.21a118.13 118.13 0 01-15.319-26.071l4.649 11.139a117.688 117.688 0 01-7.765-28.567l1.543 11.972c-1.35-10.507-1.02-21.137-1.02-31.708V183.883c0-13.372-.687-27.101 1.02-40.388l-1.6 11.558a117.663 117.663 0 017.765-28.567l-4.439 10.618a118.385 118.385 0 0114.516-25.034l-6.976 9.154a119.143 119.143 0 0120.211-20.445l-9.209 7.164a118.13 118.13 0 0126.071-15.32l-11.139 4.65a117.688 117.688 0 0128.567-7.765l-11.971 1.543c16.335-2.1 33.367-1.02 49.789-1.02h223.595c24.515 0 45.171-20.05 45.334-44.686C461.717 20.953 441.386.01 416.869.01H192.572c-20.62 0-40.556-.323-61.058 2.563C102.138 6.71 75.985 21.236 53.475 39.95 31.389 58.31 16.079 84.493 7.132 111.479.937 130.159 0 149.829 0 169.318v586.766c0 43.965 17.575 87.13 49.884 117.287 30.09 28.087 69.696 43.063 110.732 43.063H748.46c22.077 0 44.408-1.825 65.017-10.328 8.269-3.411 16.411-6.688 24.164-11.13 7.941-4.548 15.109-10.334 22.256-16.002 11.423-9.061 20.115-19.996 28.758-31.701 17.353-23.502 25.622-53.131 27.556-81.94 1.016-15.128.213-30.533.213-45.675V497.812c0-24.515-20.05-45.171-44.686-45.334-24.392-.162-45.334 20.169-45.334 44.686zM582.373 90.03l127.43.118 156.249.144 5.038.005c24.515.022 45.171-20.067 45.334-44.686C916.586 21.2 896.255.299 871.738.277L744.308.16 588.059.016 583.021.01c-24.515-.022-45.171 20.067-45.334 44.686-.162 24.408 20.169 45.312 44.686 45.334z" id="Path"/><path d="M916.157 334.064l.118-127.43.145-156.25.004-5.04C916.447 20.83 896.358.175 871.738.012c-24.409-.162-45.312 20.17-45.334 44.686l-.118 127.43-.145 156.25-.004 5.039c-.023 24.515 20.066 45.17 44.686 45.334 24.409.162 45.311-20.17 45.334-44.686z" id="Path"/><path d="M435.12 544.589l49.338-49.3c39.135-39.102 78.269-78.205 117.403-117.31 46.52-46.48 93.038-92.962 139.558-139.444L857.216 122.83l46.193-46.157c17.324-17.311 17.031-46.494-.341-63.65-17.513-17.291-46.291-17.002-63.649.342l-49.338 49.298-117.403 117.31c-46.52 46.48-93.038 92.963-139.558 139.445a12636839.44 12636839.44 0 00-161.99 161.86c-17.324 17.31-17.031 46.494.341 63.649 17.511 17.294 46.29 17.005 63.649-.34z" id="Path"/></g></symbol><symbol id="reycore-icon-sync" viewBox="0 0 14 14" xmlns="http://www.w3.org/2000/svg" xmlns:xlink="http://www.w3.org/1999/xlink"><path d="M13 7c-.609 0-.898.43-1 .883C11.635 9.516 10.084 12 7 12a4.947 4.947 0 01-2.114-.474L5.414 11c.359-.344.586-.555.586-1 0-.523-.438-1-1-1H2c-.609 0-1 .492-1 1v3c0 .541.428 1 1 1 .484 0 .688-.273 1-.594l.408-.407A6.933 6.933 0 007 14c4.99 0 7-4.75 7-5.938C14 7.336 13.469 7 13 7zM2 6.117C2.365 4.485 3.916 2 7 2c.757 0 1.473.171 2.114.473L8.586 3C8.227 3.344 8 3.555 8 4c0 .523.438 1 1 1h3c.609 0 1-.492 1-1V1c0-.541-.428-1-1-1-.484 0-.688.273-1 .594l-.408.407A6.933 6.933 0 007 0C2.01 0 0 4.75 0 5.938 0 6.664.531 7 1 7c.609 0 .898-.43 1-.883z" fill="currentColor"/></symbol><symbol id="reycore-icon-eye" viewBox="0 0 462 346" xmlns="http://www.w3.org/2000/svg" xmlns:xlink="http://www.w3.org/1999/xlink"><g fill="currentColor"><path d="M231 346c130.436 0 231-145.672 231-173C462 140.487 358.578 0 231 0 93.544 0 0 147.593 0 173c0 29.892 98.754 173 231 173zM56.582 160.22c10.19-16.248 24.256-33.862 40.402-49.81C137.422 70.463 183.742 47 231 47c43.601 0 89.97 22.95 131.198 61.598 16.999 15.934 31.855 33.504 42.4 49.512 3.5 5.31 6.323 10.16 8.34 14.199-2 3.864-4.71 8.469-8.002 13.493-10.623 16.212-25.345 33.965-42.091 50.06C321.537 275.563 275.325 299 231 299c-45.405 0-91.768-23.108-132.568-62.22-16.592-15.905-31.06-33.465-41.397-49.55-3.306-5.143-6-9.857-7.957-13.807 1.897-3.808 4.438-8.313 7.504-13.203z"/><circle id="Oval" cx="231" cy="173" r="51"/></g></symbol><symbol id="reycore-icon-compare" viewBox="0 0 984 972" xmlns="http://www.w3.org/2000/svg" xmlns:xlink="http://www.w3.org/1999/xlink"><g fill="none" fill-rule="evenodd"><g id="Group" fill="currentColor" fill-rule="nonzero"><path d="M68.8 265.5l67-67L241.6 92.7l24.3-24.3h-56.6l67 67 105.8 105.8 24.3 24.3c14.8 14.8 42 15.9 56.6 0 14.7-16 15.8-40.8 0-56.6l-67-67L290.2 36.1l-24.3-24.3c-15.3-15.3-41.3-15.3-56.6 0l-67 67C107.1 114 71.9 149.3 36.6 184.6l-24.3 24.3c-14.8 14.8-15.9 42 0 56.6 15.9 14.6 40.7 15.8 56.5 0z" id="Path"/><path d="M197.7 40.1v702.1c0 9.5-.1 19.1 0 28.6v1.2c0 20.9 18.4 41 40 40 21.7-1 40-17.6 40-40V69.9c0-9.5.1-19.1 0-28.6v-1.2c0-20.9-18.4-41-40-40-21.7 1-40 17.6-40 40zm323.3 723l67 67 105.8 105.8 24.3 24.3c15.3 15.3 41.3 15.3 56.6 0l67-67 105.8-105.8 24.3-24.3c14.8-14.8 15.9-42 0-56.6-16-14.7-40.8-15.8-56.6 0l-67 67-105.8 105.8-24.3 24.3h56.6l-67-67-105.8-105.8-24.3-24.3c-14.8-14.8-42-15.9-56.6 0-14.7 16-15.9 40.8 0 56.6z" id="Path"/><path d="M786.3 931.9V229.8c0-9.5.1-19.1 0-28.6V200c0-20.9-18.4-41-40-40-21.7 1-40 17.6-40 40v702.1c0 9.5-.1 19.1 0 28.6v1.2c0 20.9 18.4 41 40 40 21.7-1 40-17.6 40-40z" id="Path"/></g></g></symbol><symbol id="reycore-icon-bag" viewBox="0 0 24 24" xmlns="http://www.w3.org/2000/svg" xmlns:xlink="http://www.w3.org/1999/xlink"><path d="M21 3h-4.4C15.8 1.2 14 0 12 0S8.2 1.2 7.4 3H3c-.6 0-1 .4-1 1v19c0 .6.4 1 1 1h18c.6 0 1-.4 1-1V4c0-.6-.4-1-1-1zm-9-2c1.5 0 2.8.8 3.4 2H8.6c.6-1.2 1.9-2 3.4-2zm8 21H4v-4h16v4zm0-5H4V5h3v4h1V5h8v4h1V5h3v12z"/></symbol><symbol id="reycore-icon-bag2" viewBox="0 0 20 20" xmlns="http://www.w3.org/2000/svg" xmlns:xlink="http://www.w3.org/1999/xlink"><path d="M16 7V6c0-3.3-2.7-6-6-6S4 2.7 4 6v1H0v10c0 1.7 1.3 3 3 3h14c1.7 0 3-1.3 3-3V7h-4zM6 6c0-2.2 1.8-4 4-4s4 1.8 4 4v1H6V6zm12 11c0 .6-.4 1-1 1H3c-.6 0-1-.4-1-1V9h2v2h2V9h8v2h2V9h2v8z" fill="currentColor" fill-rule="nonzero" id="Page-1" stroke="none" stroke-width="1"/></symbol><symbol id="reycore-icon-bag3" viewBox="0 0 322 376" xmlns="http://www.w3.org/2000/svg" xmlns:xlink="http://www.w3.org/1999/xlink"><path d="M321.871 300.957l-18.349-264.53C302.042 15.942 285.02.06 264.481 0H57.52C36.98.06 19.959 15.941 18.478 36.428L.128 300.957A70.186 70.186 0 0070.148 376h181.706a70.186 70.186 0 0070.018-75.043zm-40.635 32.272A40.323 40.323 0 01251.853 346H70.147a40.187 40.187 0 01-40.09-42.967l18.35-264.53A9.165 9.165 0 0157.52 30h206.961a9.165 9.165 0 019.114 8.504l18.349 264.53a40.321 40.321 0 01-10.708 30.195zM231 70v28c0 41.309-27.477 68-70 68-42.523 0-70-26.691-70-68V70c0-8.284 6.716-15 15-15 8.284 0 15 6.716 15 15v28c0 31.407 21.752 38 40 38s40-6.593 40-38V70c0-8.284 6.716-15 15-15 8.284 0 15 6.716 15 15z" fill="currentColor"/></symbol><symbol id="reycore-icon-basket" viewBox="0 0 90 82" xmlns="http://www.w3.org/2000/svg" xmlns:xlink="http://www.w3.org/1999/xlink"><path d="M90 31.6v6.9h-4.1l-8.5 43.2H12.8L4.3 38.5H0v-6.9h90zM71.7 74.8l7.2-36.3H11.3l7.1 36.3h53.3zM45 67.2c-1.9 0-3.4-1.6-3.4-3.5V49.8c0-1.9 1.5-3.4 3.4-3.4s3.4 1.5 3.4 3.4v14c0 1.9-1.5 3.4-3.4 3.4zm-18.7-2.7l-3-14c-.5-2.1 1.1-4.1 3.3-4.1 1.6 0 3 1.1 3.3 2.7l3 14c.5 2.1-1.1 4.1-3.3 4.1-1.6 0-3-1.1-3.3-2.7zm34.6 2.7c-2.2 0-3.8-2.1-3.3-4.1l3-14c.3-1.6 1.7-2.7 3.3-2.7 2.1 0 3.8 2 3.3 4.1l-3 14c-.3 1.6-1.7 2.7-3.3 2.7zm-15-58.1L34.6 29.6h-7.3c.1-.2.1-.3.2-.5L41.9 2.5C42.5.8 44.3-.1 46 .4c1.6-.4 3.4.4 4.1 2.1l14.1 26.6c.1.2.2.3.2.5h-7.3L45.9 9.1z" fill="currentColor"/></symbol><symbol id="reycore-icon-basket2" viewBox="0 0 93 76" xmlns="http://www.w3.org/2000/svg" xmlns:xlink="http://www.w3.org/1999/xlink"><path d="M8.374 33.378c-.5.59-.81 1.4-.81 2.3 0 1.79 1.24 3.25 2.77 3.25h72.51c1.53 0 2.77-1.46 2.77-3.25 0-1.24-.59-2.31-1.45-2.86a2.43 2.43 0 00-1.32-.39h-72.51c-.48 0-.93.14-1.32.39a2.79 2.79 0 00-.64.56zm78.54-8.85s5.919 3.466 5.919 7.516l-7.549 33.934c0 5.18-4.19 9.37-9.37 9.37h-58.66c-5.17 0-9.36-4.19-9.36-9.37L0 32.21c0-3.66 5.244-7.243 5.244-7.243L37.964.158c.72-.54 2.32.35 3.57 2 1.25 1.64 1.67 3.42.95 3.97l-23.52 17.84h54.83l-23.42-17.75c-.72-.55-.29-2.33.96-3.98s2.84-2.54 3.57-1.99l32.01 24.28zm-3.741 24.16c0-1.8-1.16-3.26-2.59-3.26h-67.99c-.72 0-1.36.37-1.83.95-.47.6-.76 1.41-.76 2.31 0 1.79 1.16 3.25 2.59 3.25h67.99c1.431 0 2.59-1.46 2.59-3.25zm-2.61 13c0-1.79-1.07-3.25-2.4-3.25h-63.15c-.66 0-1.27.36-1.7.95-.44.59-.71 1.41-.71 2.3 0 1.8 1.08 3.25 2.41 3.25h63.15c1.331 0 2.4-1.45 2.4-3.25z" fill="currentColor"/></symbol><symbol id="reycore-icon-cart" viewBox="0 0 100 77" xmlns="http://www.w3.org/2000/svg" xmlns:xlink="http://www.w3.org/1999/xlink"><path d="M100 12.523H24.5l-.979-3.418C20.574-1.391 6.253-3.204.8 6.338c-2.282 3.996 3.713 7.421 5.996 3.425 2.408-4.213 8.791-3.41 10.085 1.229L31.69 62.739a8.952 8.952 0 00-7.446-3.977c-4.949 0-8.961 4.012-8.961 8.957 0 4.949 4.012 8.963 8.961 8.963 4.949 0 8.958-4.014 8.958-8.963 0-.691-.086-1.357-.233-2.002h34.37a8.942 8.942 0 00-.246 2.055 8.96 8.96 0 1017.919 0c0-4.895-3.927-8.863-8.805-8.951-.039 0-.076-.012-.122-.012h-38.34l-1.951-6.82 60.659-9.406L100 12.523zm-9.788 24.042l-56.333 8.73-7.403-25.87h65.758l-2.022 17.14z" fill="currentColor"/></symbol><symbol id="reycore-icon-cart2" viewBox="0 0 26 26" xmlns="http://www.w3.org/2000/svg" xmlns:xlink="http://www.w3.org/1999/xlink"><path d="M16.822 22.097a1.95 1.95 0 010 3.9 1.95 1.95 0 010-3.9zm-11.625 0a1.95 1.95 0 11-.001 3.898 1.95 1.95 0 01.001-3.898zM24.623 0H26c-.013.078-.013.156-.013.234V2.6h-1.351a2.57 2.57 0 00-1.845.767c-.117.117-.22.234-.325.377a2.68 2.68 0 00-.441 1.47v4.64h-.007v4.44a5.202 5.202 0 01-5.2 5.204H5.2c-2.871 0-5.2-2.33-5.2-5.204V7.259h2.598v7.035a2.607 2.607 0 002.603 2.604h11.617a2.607 2.607 0 002.602-2.604V9.859H7.795v-2.6h11.631V5.2c0-2.873 2.326-5.2 5.197-5.2z" fill="currentColor"/></symbol><symbol id="reycore-icon-cart3" viewBox="0 0 59.2 40.1" xmlns="http://www.w3.org/2000/svg" xmlns:xlink="http://www.w3.org/1999/xlink"><path d="M42.8 17.6H30c-1.7 0-3-1.3-3-3s1.3-3 3-3h12.8c1.7 0 3 1.3 3 3s-1.3 3-3 3z"/><circle cx="23.7" cy="36.1" r="4"/><circle cx="49.1" cy="36.1" r="4"/><path d="M57 5.1c-1.6-.4-3.2.5-3.7 2.1l-4.1 15.3H23.6L18.2 2.2C17.8.9 16.7 0 15.3 0H3.1c-1.7 0-3 1.3-3 3s1.3 3 3 3h7.6c1.4 0 2.5.9 2.9 2.2l4.8 18.1c.4 1.3 1.5 2.2 2.9 2.2h30.2c1.4 0 2.5-.9 2.9-2.2l4.7-17.5c.4-1.7-.5-3.3-2.1-3.7z"/></symbol><symbol id="reycore-icon-play" viewBox="0 0 83 112" xmlns="http://www.w3.org/2000/svg" xmlns:xlink="http://www.w3.org/1999/xlink"><path d="M78.782 49.559L12.636 1.526A7.961 7.961 0 00-.001 7.968v96.068a7.959 7.959 0 0012.637 6.437l66.146-48.035a7.96 7.96 0 000-12.879z" fill="currentColor" fill-rule="evenodd"/></symbol><symbol id="reycore-icon-minus" viewBox="0 0 24 24" xmlns="http://www.w3.org/2000/svg" xmlns:xlink="http://www.w3.org/1999/xlink"><path fill="currentColor" d="M7 11h10v2H7z"/></symbol><symbol id="reycore-icon-plus" viewBox="0 0 24 24" xmlns="http://www.w3.org/2000/svg" xmlns:xlink="http://www.w3.org/1999/xlink"><path fill="currentColor" d="M11 11V6h2v5h5v2h-5v5h-2v-5H6v-2z"/></symbol><symbol id="reycore-icon-zoom" viewBox="0 0 24 24" xmlns="http://www.w3.org/2000/svg" fill-rule="evenodd" clip-rule="evenodd"><path d="M15.853 16.56A9.458 9.458 0 019.5 19C4.257 19 0 14.743 0 9.5S4.257 0 9.5 0 19 4.257 19 9.5c0 2.442-.923 4.67-2.44 6.353l7.44 7.44-.707.707-7.44-7.44zM9.5 1C14.191 1 18 4.809 18 9.5S14.191 18 9.5 18 1 14.191 1 9.5 4.809 1 9.5 1zM5 9h4V5h1v4h4v1h-4v4H9v-4H5V9z"/></symbol><symbol id="reycore-icon-dots" viewBox="0 0 92 21" xmlns="http://www.w3.org/2000/svg" fill-rule="evenodd" clip-rule="evenodd"><path d="M46 20.182c-5.426 0-9.824-4.398-9.824-9.824S40.574.534 46 .534s9.824 4.398 9.824 9.824-4.398 9.824-9.824 9.824zm35.25 0c-5.426 0-9.824-4.398-9.824-9.824S75.824.534 81.25.534s9.824 4.398 9.824 9.824-4.398 9.824-9.824 9.824zm-70.5 0c-5.426 0-9.824-4.398-9.824-9.824S5.324.534 10.75.534s9.824 4.398 9.824 9.824-4.398 9.824-9.824 9.824z" fill="currentColor" fill-rule="nonzero"/></symbol><symbol id="reycore-icon-bubble" viewBox="0 0 252 188" xmlns="http://www.w3.org/2000/svg" fill-rule="evenodd" clip-rule="evenodd"><path d="M161.967 184.927c-6.434 5.8-16.697 1.235-16.697-7.427v-26.23a7.92 7.92 0 00-7.92-7.92H28.74A27.91 27.91 0 01.83 115.44V28.446A27.91 27.91 0 0128.74.52h194.52a27.91 27.91 0 0127.91 27.92v87a27.91 27.91 0 01-27.91 27.91h-12.145a7.925 7.925 0 00-5.308 2.047l-43.84 39.53zm30.441-54.379a27.923 27.923 0 0118.702-7.198h12.15a7.91 7.91 0 007.91-7.91V28.434a7.91 7.91 0 00-7.91-7.914H28.74a7.91 7.91 0 00-7.91 7.92v87a7.91 7.91 0 007.91 7.91h108.61a27.92 27.92 0 0127.92 27.92v3.748l27.138-24.47zM75.13 85.04c-8.483 0-15.36-6.877-15.36-15.36s6.877-15.36 15.36-15.36 15.36 6.877 15.36 15.36-6.877 15.36-15.36 15.36zm50.87 0c-8.483 0-15.36-6.877-15.36-15.36s6.877-15.36 15.36-15.36 15.36 6.877 15.36 15.36-6.877 15.36-15.36 15.36zm50.87 0c-8.483 0-15.36-6.877-15.36-15.36s6.877-15.36 15.36-15.36 15.36 6.877 15.36 15.36-6.877 15.36-15.36 15.36z" fill="currentColor" fill-rule="nonzero"/></symbol></svg>