<svg width="83" height="42" viewBox="0 0 83 42" xmlns="http://www.w3.org/2000/svg"><g id="Page-1" stroke="none" stroke-width="1" fill="none" fill-rule="evenodd"><g id="logo"><path id="Rectangle" fill="#DA291C" d="M0 0h83v42H0z"/><path d="M18.003 24.794a.189.189 0 00.058.153.24.24 0 00.157.05h1.457a.2.2 0 00.166-.048.182.182 0 00.06-.155v-2.125h.795l1.192 2.153a.214.214 0 00.086.127.251.251 0 00.15.048h1.682c.05.003.1-.01.14-.039a.138.138 0 00.052-.115.314.314 0 00-.054-.157 2.549 2.549 0 01-.089-.157l-1.26-2.28c.176-.098.34-.216.488-.351.299-.274.519-.619.638-.999a2.131 2.131 0 00-.098-1.498 2.302 2.302 0 00-.518-.728 2.48 2.48 0 00-.771-.49 2.468 2.468 0 00-.947-.182h-3.17a.21.21 0 00-.163.059.224.224 0 00-.054.157v6.576l.003.001zm3.793-4.19a.797.797 0 01-.682.549 2.32 2.32 0 01-.31.019h-.901v-1.728h.677c.095 0 .182.003.261.007l.258.017c.107.014.21.05.304.103a.881.881 0 01.388.457c.035.09.053.186.054.283 0 .1-.018.198-.05.293h.001zm16.837 4.19a.19.19 0 00.059.153c.044.035.1.052.157.05h4.96c.045.009.092 0 .13-.025a.162.162 0 00.071-.107.114.114 0 00.04-.084v-1.184a.184.184 0 00-.054-.162.201.201 0 00-.167-.054h-3.297v-1.206h2.458a.2.2 0 00.157-.063.191.191 0 00.054-.126V20.97a.16.16 0 00-.062-.142.265.265 0 00-.154-.042h-2.453v-1.168h3.179a.208.208 0 00.172-.073.239.239 0 00.058-.153v-1.165a.226.226 0 00-.058-.164.22.22 0 00-.167-.063h-4.87a.21.21 0 00-.158.06.218.218 0 00-.056.156v6.577l.001.001zm21.836-6.647a1.048 1.048 0 00-.054-.082.145.145 0 00-.04-.038.1.1 0 00-.039-.014.402.402 0 01-.054-.012h-1.889a.07.07 0 00-.073.07.171.171 0 00.065.118l2.322 3.943v2.643a.232.232 0 00.054.163.2.2 0 00.152.059h1.468a.206.206 0 00.17-.057.189.189 0 00.055-.165v-2.633l2.325-3.953a.18.18 0 00.069-.117.066.066 0 00-.022-.05.079.079 0 00-.056-.021h-1.89a.265.265 0 01-.05.012.1.1 0 00-.042.014.145.145 0 00-.04.038.616.616 0 00-.049.082l-1.184 2.436-1.198-2.436z" id="REY" fill="#EDEDED" fill-rule="nonzero"/></g></g></svg>