<svg width="16" height="16" viewBox="0 0 16 16" xmlns="http://www.w3.org/2000/svg"><g id="Page-1" stroke="none" stroke-width="1" fill="none" fill-rule="evenodd" fill-opacity=".6"><path d="M2 0h12a2 2 0 012 2v12a2 2 0 01-2 2H2a2 2 0 01-2-2V2a2 2 0 012-2zm3.003 10.823a.15.15 0 00.058.132c.045.03.1.044.157.042h1.457a.222.222 0 00.166-.04.145.145 0 00.06-.134v-1.82h.795l1.192 1.845a.185.185 0 00.086.109c.043.026.096.04.15.04h1.682c.05.003.1-.009.14-.033a.111.111 0 00.052-.099.245.245 0 00-.054-.135 2.12 2.12 0 01-.089-.134L9.595 8.64c.176-.083.34-.184.488-.3.299-.235.519-.53.638-.856a1.608 1.608 0 00-.098-1.284 2.01 2.01 0 00-.518-.624 2.564 2.564 0 00-.771-.42A2.831 2.831 0 008.387 5h-3.17a.23.23 0 00-.163.05.176.176 0 00-.054.135v5.637h.003zm3.793-3.591a.698.698 0 01-.142.222.781.781 0 01-.23.165.895.895 0 01-.31.083 4.064 4.064 0 01-.309.016h-.902v-1.48h.677c.095 0 .182.002.261.006.08.004.166.008.258.014a.923.923 0 01.304.089c.09.044.17.102.235.17a.763.763 0 01.153.221.609.609 0 01.004.493h.001z" id="Combined-Shape" fill="#F0F5FA" fill-rule="nonzero"/></g></svg>